<svg width="12.010010" height="25.000000" viewBox="0 0 12.01 25" fill="none" xmlns="http://www.w3.org/2000/svg" xmlns:xlink="http://www.w3.org/1999/xlink">
	<desc>
			Created with Pixso.
	</desc>
	<defs/>
	<path id="Vector" d="M7.97 8.18L7.97 6.02C7.97 5.7 8 5.45 8.03 5.27C8.06 5.1 8.13 4.93 8.23 4.75C8.34 4.58 8.53 4.47 8.77 4.39C9.01 4.33 9.34 4.29 9.75 4.29L11.97 4.29L11.97 0L8.41 0C6.37 0 4.89 0.47 4 1.41C3.09 2.37 2.66 3.75 2.66 5.6L2.66 8.18L0 8.18L0 12.5L2.66 12.5L2.66 25L7.98 25L7.98 12.5L11.54 12.5L12.01 8.18L7.97 8.18Z" fill="#FFFFFF" fill-opacity="1.000000" fill-rule="nonzero"/>
</svg>
