<svg width="27.000000" height="27.000000" viewBox="0 0 27 27" fill="none" xmlns="http://www.w3.org/2000/svg" xmlns:xlink="http://www.w3.org/1999/xlink">
	<desc>
			Created with Pixso.
	</desc>
	<defs/>
	<path id="Vector" d="M22.33 6.29C22.33 7.18 21.6 7.91 20.71 7.91C19.82 7.91 19.09 7.18 19.09 6.29C19.09 5.39 19.82 4.66 20.71 4.66C21.6 4.66 22.33 5.39 22.33 6.29ZM13.5 18C15.99 18.04 18.03 16.04 18.07 13.56C18.11 11.08 16.12 9.04 13.63 9C13.59 9 13.54 9 13.5 9C11.01 9 9 11 9 13.5C9 15.99 11.01 18 13.5 18ZM13.5 6.56C17.33 6.52 20.46 9.58 20.52 13.41C20.57 17.25 17.5 20.39 13.67 20.43C13.61 20.43 13.56 20.43 13.5 20.43C9.66 20.39 6.59 17.25 6.65 13.41C6.7 9.64 9.73 6.6 13.5 6.56ZM13.5 2.43C9.9 2.43 9.46 2.43 8.04 2.5C6.72 2.56 6.01 2.79 5.53 2.97C4.95 3.18 4.41 3.54 3.98 3.97C3.53 4.41 3.19 4.95 2.97 5.54C2.79 6.02 2.58 6.72 2.52 8.04C2.45 9.47 2.42 9.89 2.42 13.5C2.42 17.1 2.44 17.52 2.51 18.95C2.57 20.27 2.78 20.98 2.96 21.46C3.21 22.08 3.51 22.54 3.97 23C4.45 23.48 4.9 23.77 5.53 24.02C6.01 24.2 6.71 24.41 8.03 24.49C9.46 24.56 9.89 24.56 13.49 24.56C17.09 24.56 17.52 24.56 18.95 24.49C20.27 24.43 20.98 24.21 21.46 24.02C22.05 23.79 22.58 23.46 23.01 23C23.46 22.56 23.8 22.04 24.02 21.46C24.2 20.98 24.43 20.27 24.49 18.95C24.56 17.52 24.57 17.1 24.57 13.5C24.57 9.89 24.56 9.47 24.49 8.04C24.43 6.72 24.21 6 24.02 5.52C23.8 4.93 23.46 4.41 23.01 3.97C22.57 3.52 22.04 3.18 21.46 2.97C20.98 2.79 20.27 2.56 18.95 2.5C17.53 2.45 17.11 2.43 13.5 2.43ZM13.5 0C17.17 0 17.62 0 19.07 0.08C20.51 0.14 21.49 0.37 22.35 0.7C23.25 1.04 24.07 1.58 24.74 2.27C25.43 2.93 25.96 3.75 26.3 4.66C26.63 5.52 26.86 6.5 26.93 7.93C26.99 9.37 27 9.83 27 13.5C27 17.16 26.99 17.62 26.92 19.06C26.85 20.5 26.62 21.49 26.29 22.35C25.95 23.25 25.42 24.06 24.73 24.74C24.06 25.43 23.24 25.96 22.34 26.29C21.48 26.62 20.5 26.85 19.06 26.93C17.62 26.98 17.17 27 13.5 27C9.83 27 9.37 26.98 7.92 26.91C6.48 26.85 5.51 26.62 4.65 26.29C3.75 25.95 2.92 25.41 2.26 24.73C1.57 24.06 1.03 23.24 0.7 22.33C0.36 21.48 0.14 20.5 0.07 19.06C0.02 17.62 0 17.16 0 13.5C0 9.83 0.02 9.37 0.08 7.93C0.15 6.5 0.38 5.5 0.71 4.66C1.04 3.75 1.58 2.93 2.27 2.27C2.94 1.58 3.76 1.04 4.65 0.7C5.52 0.37 6.5 0.14 7.92 0.08C9.37 0 9.84 0 13.5 0Z" fill="#FFFFFF" fill-opacity="1.000000" fill-rule="nonzero"/>
</svg>
