<svg width="18" height="30" viewBox="0 0 18 30" fill="none" xmlns="http://www.w3.org/2000/svg">
<path fill-rule="evenodd" clip-rule="evenodd" d="M8.9345 15.1199C13.0825 15.1199 16.4572 11.7599 16.4572 7.62988C16.4572 3.48988 13.0825 0.139883 8.9345 0.129883C4.77642 0.129883 1.41179 3.48988 1.40175 7.61988C1.41179 11.7599 4.77642 15.1099 8.9345 15.1199ZM8.9345 4.51988C10.652 4.51988 12.048 5.90988 12.048 7.61988C12.048 9.32988 10.652 10.7199 8.9345 10.7199C7.21703 10.7199 5.82096 9.32988 5.82096 7.61988C5.82096 5.90988 7.21703 4.51988 8.9345 4.51988ZM11.9777 21.2299C13.5245 20.8799 15.0009 20.2699 16.3467 19.4299C17.3812 18.7799 17.6825 17.4299 17.0397 16.3999C16.3969 15.3699 15.031 15.0599 14.0066 15.7099C10.9031 17.6399 6.97597 17.6399 3.87248 15.7099C2.8179 15.0899 1.47205 15.4399 0.849343 16.4899C0.256767 17.4899 0.548031 18.7899 1.52227 19.4299C2.86812 20.2699 4.34454 20.8799 5.89127 21.2299L1.68297 25.4199C0.819214 26.2699 0.819219 27.6599 1.67293 28.5199C2.08472 28.9299 2.64716 29.1699 3.23974 29.1699C3.80219 29.1699 4.36462 28.9499 4.7965 28.5299L8.9345 24.4099L13.0725 28.5299C13.9362 29.3899 15.3223 29.3899 16.186 28.5299C17.0498 27.6699 17.0498 26.2899 16.186 25.4299L11.9777 21.2299Z" fill="#F05A26"/>
</svg>
