<svg width="32" height="19" viewBox="0 0 32 19" fill="none" xmlns="http://www.w3.org/2000/svg">
<path d="M31.3576 16.5498C30.8153 15.5698 29.7808 14.3598 28.2642 12.9198L28.214 12.8698C27.4908 12.1898 27.0489 11.7398 26.8681 11.5098C26.5367 11.0698 26.4563 10.6298 26.6371 10.1798C26.7677 9.83983 27.2498 9.11983 28.0934 8.02982C28.5354 7.44982 28.8869 6.97982 29.148 6.62982C31.0161 4.10982 31.8297 2.49982 31.5786 1.79981L31.4781 1.63981C31.4179 1.53981 31.2471 1.44981 30.976 1.36981C30.7048 1.28981 30.3633 1.26981 29.9415 1.32981L25.2712 1.35981C25.1908 1.32981 25.0904 1.32981 24.9498 1.36981L24.7388 1.41981L24.6585 1.45981L24.5982 1.49981C24.5279 1.54981 24.4677 1.59981 24.4174 1.66981C24.3471 1.75981 24.2969 1.84981 24.2567 1.95981C23.7747 3.22982 23.1921 4.46982 22.5192 5.65982C22.1677 6.25982 21.8061 6.84982 21.4144 7.42982C21.083 7.92982 20.8017 8.28982 20.5707 8.52983C20.3397 8.76983 20.1388 8.95983 19.9581 9.09983C19.7773 9.23983 19.6367 9.29983 19.5362 9.27983C19.4458 9.25983 19.3554 9.23983 19.265 9.20983C19.1144 9.10983 18.9838 8.96983 18.9035 8.80983C18.803 8.60983 18.7428 8.38983 18.7126 8.16983C18.6825 7.94982 18.6624 7.72982 18.6524 7.49982C18.6423 7.30982 18.6524 7.04982 18.6624 6.70982C18.6725 6.36982 18.6825 6.13982 18.6825 6.01982C18.6825 5.59982 18.6926 5.14982 18.7026 4.66982L18.7428 3.50982C18.7528 3.22982 18.7629 2.91982 18.7629 2.60982C18.7629 2.28982 18.7428 2.03981 18.7026 1.85981C18.6725 1.66981 18.6122 1.49981 18.5419 1.32981C18.4716 1.16981 18.3611 1.02981 18.2105 0.939813C18.0397 0.839813 17.8589 0.759812 17.6681 0.719812C17.0956 0.589812 16.3624 0.519813 15.4786 0.509813C13.4698 0.489812 12.1742 0.619813 11.6017 0.899813C11.3707 1.02981 11.1598 1.18981 10.9891 1.38981C10.7982 1.62981 10.7681 1.75981 10.9087 1.77981C11.5515 1.87981 12.0135 2.10981 12.2847 2.48982L12.3851 2.68982C12.4554 2.82982 12.5358 3.07982 12.6161 3.44982C12.6864 3.80982 12.7367 4.20982 12.7668 4.64982C12.817 5.44982 12.817 6.12982 12.7668 6.69982C12.7166 7.26982 12.6563 7.70982 12.6161 8.02982C12.586 8.29982 12.5057 8.55983 12.3952 8.79983C12.3349 8.91983 12.2746 9.04983 12.2043 9.15983C12.1843 9.18983 12.1541 9.21983 12.124 9.23983C11.9834 9.28983 11.8327 9.31983 11.6821 9.31983C11.5314 9.31983 11.3506 9.23983 11.1297 9.08983C10.8786 8.90983 10.6576 8.68983 10.4567 8.45983C10.1655 8.10982 9.90434 7.72982 9.67334 7.32982C9.3419 6.77982 9.04059 6.20982 8.76941 5.61982L8.50827 5.13982C8.27727 4.69982 8.05631 4.24982 7.84539 3.79982C7.57421 3.23982 7.32312 2.67982 7.10216 2.09981C7.03185 1.88981 6.89124 1.70981 6.71046 1.56981L6.63011 1.51981C6.54976 1.45981 6.45936 1.41981 6.36897 1.37981C6.24845 1.32981 6.12792 1.28981 5.99736 1.26981L1.55805 1.29981C1.10609 1.29981 0.794735 1.39981 0.634037 1.60981L0.573773 1.70981C0.533599 1.78981 0.513512 1.87981 0.523556 1.96981C0.523556 2.08981 0.553685 2.23981 0.623991 2.40982C1.25674 3.92982 1.96984 5.41982 2.74321 6.87982C3.50653 8.31983 4.16941 9.46983 4.73185 10.3498C5.2943 11.2298 5.86679 12.0498 6.44932 12.8298C7.03186 13.6098 7.42356 14.1098 7.60434 14.3298C7.79517 14.5498 7.94583 14.7098 8.04626 14.8198L8.44801 15.2098C8.70915 15.4698 9.09081 15.7898 9.59299 16.1498C10.0952 16.5198 10.6476 16.8798 11.2602 17.2298C11.8729 17.5798 12.576 17.8798 13.3895 18.0998C14.1629 18.3198 14.9563 18.4098 15.7598 18.3698H17.6279C18.0096 18.3398 18.2908 18.2198 18.4917 18.0098L18.5519 17.9298C18.5921 17.8598 18.6323 17.7598 18.6725 17.6298C18.7126 17.4898 18.7327 17.3398 18.7327 17.1798C18.7227 16.7098 18.7528 16.2798 18.8332 15.9098C18.9135 15.5298 19.0039 15.2498 19.1144 15.0598C19.265 14.7698 19.476 14.5298 19.7371 14.3398C19.7773 14.3198 19.8275 14.2998 19.8677 14.2798C20.1288 14.1898 20.4301 14.2798 20.7816 14.5398C21.1332 14.7998 21.4646 15.1098 21.776 15.4898C22.0873 15.8698 22.4589 16.2898 22.8908 16.7598C23.3227 17.2298 23.7043 17.5798 24.0257 17.8098L24.3471 18.0098C24.6083 18.1598 24.8995 18.2798 25.1908 18.3698C25.5323 18.4798 25.8436 18.5098 26.0947 18.4498L30.2428 18.3798C30.6546 18.3798 30.976 18.3098 31.1969 18.1698C31.4279 18.0298 31.5585 17.8798 31.5987 17.7198C31.6389 17.5598 31.6489 17.3698 31.6087 17.1598C31.5886 17.0098 31.5485 16.8698 31.4982 16.7298C31.438 16.6798 31.3978 16.6098 31.3576 16.5498Z" fill="#F05A26"/>
</svg>
