<svg width="30.978027" height="17.972168" viewBox="0 0 30.978 17.9722" fill="none" xmlns="http://www.w3.org/2000/svg" xmlns:xlink="http://www.w3.org/1999/xlink">
	<desc>
			Created with Pixso.
	</desc>
	<defs/>
	<path id="Vector" d="M30.7 16.04C30.16 15.06 29.13 13.85 27.62 12.41L27.57 12.36C26.85 11.68 26.41 11.23 26.23 11C25.9 10.56 25.82 10.12 26 9.67C26.13 9.33 26.61 8.61 27.45 7.52C27.89 6.94 28.24 6.47 28.5 6.12C30.36 3.6 31.17 1.99 30.92 1.29L30.82 1.13C30.76 1.03 30.59 0.94 30.32 0.86C30.05 0.78 29.71 0.76 29.29 0.82L24.64 0.85C24.56 0.82 24.46 0.82 24.32 0.86L24.11 0.91L24.03 0.95L23.97 0.99C23.9 1.04 23.84 1.09 23.79 1.16C23.72 1.25 23.67 1.34 23.63 1.45C23.15 2.72 22.57 3.96 21.9 5.15C21.55 5.75 21.19 6.34 20.8 6.92C20.47 7.42 20.19 7.78 19.96 8.02C19.73 8.26 19.53 8.45 19.35 8.59C19.17 8.73 19.03 8.79 18.93 8.77C18.84 8.75 18.75 8.73 18.66 8.7C18.51 8.6 18.38 8.46 18.3 8.3C18.2 8.1 18.14 7.88 18.11 7.66C18.08 7.44 18.06 7.22 18.05 6.99C18.04 6.8 18.05 6.54 18.06 6.2C18.07 5.86 18.08 5.63 18.08 5.51C18.08 5.09 18.09 4.64 18.1 4.16L18.14 3C18.15 2.72 18.16 2.41 18.16 2.1C18.16 1.78 18.14 1.53 18.1 1.35C18.07 1.16 18.01 0.99 17.94 0.82C17.87 0.66 17.76 0.52 17.61 0.43C17.44 0.33 17.26 0.25 17.07 0.21C16.5 0.08 15.77 0.01 14.89 0C12.89 -0.02 11.6 0.11 11.03 0.39C10.8 0.52 10.59 0.68 10.42 0.88C10.23 1.12 10.2 1.25 10.34 1.27C10.98 1.37 11.44 1.6 11.71 1.98L11.81 2.18C11.88 2.32 11.96 2.57 12.04 2.94C12.11 3.3 12.16 3.7 12.19 4.14C12.24 4.94 12.24 5.62 12.19 6.19C12.14 6.76 12.08 7.2 12.04 7.52C12.01 7.79 11.93 8.05 11.82 8.29C11.76 8.41 11.7 8.54 11.63 8.65C11.61 8.68 11.58 8.71 11.55 8.73C11.41 8.78 11.26 8.81 11.11 8.81C10.96 8.81 10.78 8.73 10.56 8.58C10.31 8.4 10.09 8.18 9.89 7.95C9.6 7.6 9.34 7.22 9.11 6.82C8.78 6.27 8.48 5.7 8.21 5.11L7.95 4.63C7.72 4.19 7.5 3.74 7.29 3.29C7.02 2.73 6.77 2.17 6.55 1.59C6.48 1.38 6.34 1.2 6.16 1.06L6.08 1.01C6 0.95 5.91 0.91 5.82 0.87C5.7 0.82 5.58 0.78 5.45 0.76L1.03 0.79C0.58 0.79 0.27 0.89 0.11 1.1L0.05 1.2C0.01 1.28 -0.01 1.37 0 1.46C0 1.58 0.03 1.73 0.1 1.9C0.73 3.42 1.44 4.91 2.21 6.37C2.97 7.81 3.63 8.96 4.19 9.84C4.75 10.72 5.32 11.54 5.9 12.32C6.48 13.1 6.87 13.6 7.05 13.82C7.24 14.04 7.39 14.2 7.49 14.31L7.89 14.7C8.15 14.96 8.53 15.28 9.03 15.64C9.53 16.01 10.08 16.37 10.69 16.72C11.3 17.07 12 17.37 12.81 17.59C13.58 17.81 14.37 17.9 15.17 17.86L17.03 17.86C17.41 17.83 17.69 17.71 17.89 17.5L17.95 17.42C17.99 17.35 18.03 17.25 18.07 17.12C18.11 16.98 18.13 16.83 18.13 16.67C18.12 16.2 18.15 15.77 18.23 15.4C18.31 15.02 18.4 14.74 18.51 14.55C18.66 14.26 18.87 14.02 19.13 13.83C19.17 13.81 19.22 13.79 19.26 13.77C19.52 13.68 19.82 13.77 20.17 14.03C20.52 14.29 20.85 14.6 21.16 14.98C21.47 15.36 21.84 15.78 22.27 16.25C22.7 16.72 23.08 17.07 23.4 17.3L23.72 17.5C23.98 17.65 24.27 17.77 24.56 17.86C24.9 17.97 25.21 18 25.46 17.94L29.59 17.87C30 17.87 30.32 17.8 30.54 17.66C30.77 17.52 30.9 17.37 30.94 17.21C30.98 17.05 30.99 16.86 30.95 16.65C30.93 16.5 30.89 16.36 30.84 16.22C30.78 16.17 30.74 16.1 30.7 16.04Z" fill="#FFFFFF" fill-opacity="1.000000" fill-rule="nonzero"/>
</svg>
