<svg width="20" height="20" viewBox="0 0 20 20" fill="none" xmlns="http://www.w3.org/2000/svg">
<path fill-rule="evenodd" clip-rule="evenodd" d="M10 20C4.477 20 0 15.523 0 10C0 4.477 4.477 0 10 0C15.523 0 20 4.477 20 10C20 15.523 15.523 20 10 20ZM10.286 6.75C8.283 6.75 6.75 8.253 6.75 10C6.75 11.747 8.283 13.25 10.286 13.25C10.797 13.25 11.281 13.15 11.716 12.973C11.8072 12.9358 11.9048 12.9169 12.0034 12.9174C12.1019 12.9179 12.1993 12.9378 12.2901 12.9759C12.3809 13.0141 12.4633 13.0698 12.5326 13.1398C12.6019 13.2098 12.6568 13.2928 12.694 13.384C12.7312 13.4752 12.7501 13.5728 12.7496 13.6714C12.7491 13.7699 12.7292 13.8673 12.6911 13.9581C12.6529 14.0489 12.5972 14.1313 12.5272 14.2006C12.4572 14.2699 12.3742 14.3248 12.283 14.362C11.6487 14.6193 10.9705 14.7511 10.286 14.75C7.554 14.75 5.25 12.671 5.25 10C5.25 7.329 7.554 5.25 10.286 5.25C10.9705 5.24891 11.6487 5.38068 12.283 5.638C12.4673 5.71306 12.6143 5.85826 12.6916 6.04167C12.7688 6.22508 12.7701 6.43167 12.695 6.616C12.6199 6.80033 12.4747 6.94729 12.2913 7.02455C12.1079 7.10182 11.9013 7.10306 11.717 7.028C11.2625 6.84346 10.7765 6.74904 10.286 6.75Z" fill="#F8FCFF"/>
</svg>
