<svg width="16" height="16" viewBox="0 0 16 16" fill="none" xmlns="http://www.w3.org/2000/svg">
<path d="M6.99062 11.1529C6.90311 11.1531 6.81642 11.136 6.73554 11.1026C6.65466 11.0692 6.58116 11.0201 6.51928 10.9583L3.69128 8.1296C3.62757 8.06815 3.57673 7.99462 3.54173 7.91331C3.50674 7.832 3.48829 7.74454 3.48746 7.65602C3.48662 7.5675 3.50343 7.4797 3.53689 7.39775C3.57036 7.31579 3.61981 7.24133 3.68236 7.17869C3.74491 7.11605 3.8193 7.06649 3.90121 7.03291C3.98312 6.99934 4.07089 6.98241 4.15941 6.98311C4.24793 6.98382 4.33542 7.00215 4.41678 7.03703C4.49814 7.07191 4.57174 7.12264 4.63328 7.18627L6.98995 9.54294L11.2333 5.30094C11.3583 5.17584 11.5279 5.10553 11.7047 5.10547C11.8816 5.10541 12.0512 5.1756 12.1763 5.3006C12.3014 5.42561 12.3717 5.59519 12.3718 5.77203C12.3718 5.94888 12.3016 6.11851 12.1766 6.2436L7.46195 10.9583C7.40007 11.0201 7.32658 11.0692 7.2457 11.1026C7.16481 11.136 7.07813 11.1531 6.99062 11.1529Z" fill="#FFF9F4"/>
</svg>
