<svg width="23" height="22" viewBox="0 0 23 22" fill="none" xmlns="http://www.w3.org/2000/svg">
<path d="M4.5 13.584H5.25C5.24992 13.4381 5.20732 13.2955 5.12739 13.1734C5.04746 13.0514 4.93369 12.9553 4.8 12.897L4.5 13.584ZM18.5 13.584L18.2 12.897C18.0663 12.9553 17.9525 13.0514 17.8726 13.1734C17.7927 13.2955 17.7501 13.4381 17.75 13.584H18.5ZM15.25 6C15.25 6.19891 15.329 6.38968 15.4697 6.53033C15.6103 6.67098 15.8011 6.75 16 6.75C16.1989 6.75 16.3897 6.67098 16.5303 6.53033C16.671 6.38968 16.75 6.19891 16.75 6H15.25ZM6.25 6C6.25 6.19891 6.32902 6.38968 6.46967 6.53033C6.61032 6.67098 6.80109 6.75 7 6.75C7.19891 6.75 7.38968 6.67098 7.53033 6.53033C7.67098 6.38968 7.75 6.19891 7.75 6H6.25ZM6.5 3.25C4.97501 3.25 3.51247 3.8558 2.43414 4.93414C1.3558 6.01247 0.75 7.47501 0.75 9H2.25C2.25 7.87283 2.69777 6.79183 3.4948 5.9948C4.29183 5.19777 5.37283 4.75 6.5 4.75V3.25ZM16.5 4.75C17.6272 4.75 18.7082 5.19777 19.5052 5.9948C20.3022 6.79183 20.75 7.87283 20.75 9H22.25C22.25 7.47501 21.6442 6.01247 20.5659 4.93414C19.4875 3.8558 18.025 3.25 16.5 3.25V4.75ZM14.5 20.25H8.5V21.75H14.5V20.25ZM8.5 20.25C7.536 20.25 6.888 20.248 6.405 20.183C5.944 20.121 5.746 20.014 5.616 19.883L4.556 20.945C5.011 21.4 5.578 21.585 6.206 21.67C6.812 21.752 7.578 21.75 8.5 21.75V20.25ZM3.75 17C3.75 17.922 3.748 18.688 3.83 19.294C3.914 19.922 4.1 20.489 4.555 20.944L5.616 19.884C5.486 19.754 5.379 19.556 5.316 19.094C5.252 18.612 5.25 17.964 5.25 17H3.75ZM17.75 17C17.75 17.964 17.748 18.612 17.683 19.095C17.621 19.556 17.514 19.754 17.383 19.884L18.445 20.944C18.9 20.489 19.085 19.922 19.17 19.294C19.252 18.688 19.25 17.922 19.25 17H17.75ZM14.5 21.75C15.422 21.75 16.188 21.752 16.794 21.67C17.422 21.586 17.99 21.4 18.445 20.944L17.384 19.884C17.254 20.014 17.056 20.121 16.594 20.184C16.112 20.248 15.464 20.25 14.5 20.25V21.75ZM6.5 4.75C6.714 4.75 6.923 4.766 7.128 4.796L7.347 3.312C7.06656 3.27063 6.78347 3.24991 6.5 3.25V4.75ZM11.5 0.25C10.4028 0.250001 9.3331 0.593647 8.44117 1.23268C7.54925 1.87172 6.87986 2.77406 6.527 3.813L7.947 4.295C8.19916 3.55281 8.67745 2.90823 9.31469 2.45178C9.95194 1.99532 10.7161 1.74991 11.5 1.75V0.25ZM6.527 3.813C6.34303 4.3564 6.24945 4.9263 6.25 5.5H7.75C7.75 5.077 7.82 4.672 7.948 4.295L6.527 3.813ZM16.5 3.25C16.213 3.25 15.93 3.271 15.653 3.312L15.873 4.796C16.0806 4.76535 16.2902 4.74998 16.5 4.75V3.25ZM11.5 1.75C12.2837 1.75012 13.0477 1.99562 13.6847 2.45207C14.3218 2.90851 14.7999 3.55297 15.052 4.295L16.472 3.813C16.1192 2.77422 15.45 1.872 14.5582 1.23298C13.6665 0.593952 12.5971 0.25021 11.5 0.25V1.75ZM15.052 4.295C15.18 4.672 15.25 5.077 15.25 5.5H16.75C16.75 4.911 16.652 4.344 16.472 3.813L15.053 4.295H15.052ZM5.25 17V13.584H3.75V17H5.25ZM4.8 12.897C4.04188 12.566 3.39681 12.021 2.94386 11.3288C2.49092 10.6366 2.24978 9.82723 2.25 9H0.75C0.749925 10.119 1.07628 11.2137 1.68908 12.1499C2.30188 13.0862 3.1745 13.8233 4.2 14.271L4.8 12.897ZM17.75 13.584V17H19.25V13.584H17.75ZM20.75 9C20.7502 9.82723 20.5091 10.6366 20.0561 11.3288C19.6032 12.021 18.9581 12.566 18.2 12.897L18.8 14.271C19.8255 13.8233 20.6981 13.0862 21.3109 12.1499C21.9237 11.2137 22.2501 10.119 22.25 9H20.75ZM15.25 5.5V6H16.75V5.5H15.25ZM6.25 5.5V6H7.75V5.5H6.25Z" fill="#1F1711"/>
<path opacity="0.7" d="M11.5 8.99507L10.981 9.53707C11.1206 9.67092 11.3066 9.74565 11.5 9.74565C11.6934 9.74565 11.8794 9.67092 12.019 9.53707L11.5 8.99507ZM10.986 12.0641C10.569 11.7581 10.108 11.3741 9.759 10.9721C9.391 10.5461 9.25 10.2151 9.25 10.0001H7.75C7.75 10.7701 8.191 11.4511 8.625 11.9531C9.078 12.4771 9.639 12.9361 10.099 13.2731L10.986 12.0641ZM9.25 10.0001C9.25 9.42407 9.513 9.17407 9.742 9.09307C9.992 9.00507 10.456 9.03307 10.982 9.53707L12.019 8.45307C11.194 7.66307 10.158 7.35807 9.246 7.67807C8.312 8.00507 7.75 8.90307 7.75 10.0001H9.25ZM12.9 13.2741C13.36 12.9361 13.922 12.4771 14.375 11.9531C14.809 11.4511 15.25 10.7701 15.25 10.0001H13.75C13.75 10.2151 13.609 10.5461 13.24 10.9721C12.892 11.3751 12.431 11.7581 12.014 12.0641L12.901 13.2741H12.9ZM15.25 10.0001C15.25 8.90307 14.687 8.00507 13.754 7.67807C12.842 7.35807 11.806 7.66407 10.981 8.45307L12.019 9.53707C12.544 9.03307 13.008 9.00507 13.259 9.09307C13.487 9.17307 13.75 9.42407 13.75 10.0001H15.25ZM10.1 13.2741C10.468 13.5441 10.882 13.8811 11.5 13.8811V12.3811C11.476 12.3811 11.46 12.3811 11.406 12.3521C11.26 12.2651 11.1197 12.1689 10.986 12.0641L10.099 13.2741H10.1ZM12.014 12.0641C11.8803 12.1689 11.74 12.2651 11.594 12.3521C11.54 12.3811 11.524 12.3811 11.5 12.3811V13.8811C12.118 13.8811 12.532 13.5441 12.9 13.2741L12.014 12.0641Z" fill="#1F1711"/>
<path opacity="0.7" d="M4.5 17H18.5" stroke="#1F1711" stroke-width="1.5" stroke-linecap="round" stroke-linejoin="round"/>
</svg>
