<svg width="25" height="24" viewBox="0 0 25 24" fill="none" xmlns="http://www.w3.org/2000/svg">
<path d="M5.5 14.584H6.25C6.24992 14.4381 6.20732 14.2955 6.12739 14.1734C6.04746 14.0514 5.93369 13.9553 5.8 13.897L5.5 14.584ZM19.5 14.584L19.2 13.897C19.0663 13.9553 18.9525 14.0514 18.8726 14.1734C18.7927 14.2955 18.7501 14.4381 18.75 14.584H19.5ZM16.25 7C16.25 7.19891 16.329 7.38968 16.4697 7.53033C16.6103 7.67098 16.8011 7.75 17 7.75C17.1989 7.75 17.3897 7.67098 17.5303 7.53033C17.671 7.38968 17.75 7.19891 17.75 7H16.25ZM7.25 7C7.25 7.19891 7.32902 7.38968 7.46967 7.53033C7.61032 7.67098 7.80109 7.75 8 7.75C8.19891 7.75 8.38968 7.67098 8.53033 7.53033C8.67098 7.38968 8.75 7.19891 8.75 7H7.25ZM7.5 4.25C5.97501 4.25 4.51247 4.8558 3.43414 5.93414C2.3558 7.01247 1.75 8.47501 1.75 10H3.25C3.25 8.87283 3.69777 7.79183 4.4948 6.9948C5.29183 6.19777 6.37283 5.75 7.5 5.75V4.25ZM17.5 5.75C18.6272 5.75 19.7082 6.19777 20.5052 6.9948C21.3022 7.79183 21.75 8.87283 21.75 10H23.25C23.25 8.47501 22.6442 7.01247 21.5659 5.93414C20.4875 4.8558 19.025 4.25 17.5 4.25V5.75ZM15.5 21.25H9.5V22.75H15.5V21.25ZM9.5 21.25C8.536 21.25 7.888 21.248 7.405 21.183C6.944 21.121 6.746 21.014 6.616 20.883L5.556 21.945C6.011 22.4 6.578 22.585 7.206 22.67C7.812 22.752 8.578 22.75 9.5 22.75V21.25ZM4.75 18C4.75 18.922 4.748 19.688 4.83 20.294C4.914 20.922 5.1 21.489 5.555 21.944L6.616 20.884C6.486 20.754 6.379 20.556 6.316 20.094C6.252 19.612 6.25 18.964 6.25 18H4.75ZM18.75 18C18.75 18.964 18.748 19.612 18.683 20.095C18.621 20.556 18.514 20.754 18.383 20.884L19.445 21.944C19.9 21.489 20.085 20.922 20.17 20.294C20.252 19.688 20.25 18.922 20.25 18H18.75ZM15.5 22.75C16.422 22.75 17.188 22.752 17.794 22.67C18.422 22.586 18.99 22.4 19.445 21.944L18.384 20.884C18.254 21.014 18.056 21.121 17.594 21.184C17.112 21.248 16.464 21.25 15.5 21.25V22.75ZM7.5 5.75C7.714 5.75 7.923 5.766 8.128 5.796L8.347 4.312C8.06656 4.27063 7.78347 4.24991 7.5 4.25V5.75ZM12.5 1.25C11.4028 1.25 10.3331 1.59365 9.44117 2.23268C8.54925 2.87172 7.87986 3.77406 7.527 4.813L8.947 5.295C9.19916 4.55281 9.67745 3.90823 10.3147 3.45178C10.9519 2.99532 11.7161 2.74991 12.5 2.75V1.25ZM7.527 4.813C7.34303 5.3564 7.24945 5.9263 7.25 6.5H8.75C8.75 6.077 8.82 5.672 8.948 5.295L7.527 4.813ZM17.5 4.25C17.213 4.25 16.93 4.271 16.653 4.312L16.873 5.796C17.0806 5.76535 17.2902 5.74998 17.5 5.75V4.25ZM12.5 2.75C13.2837 2.75012 14.0477 2.99562 14.6847 3.45207C15.3218 3.90851 15.7999 4.55297 16.052 5.295L17.472 4.813C17.1192 3.77422 16.45 2.872 15.5582 2.23298C14.6665 1.59395 13.5971 1.25021 12.5 1.25V2.75ZM16.052 5.295C16.18 5.672 16.25 6.077 16.25 6.5H17.75C17.75 5.911 17.652 5.344 17.472 4.813L16.053 5.295H16.052ZM6.25 18V14.584H4.75V18H6.25ZM5.8 13.897C5.04188 13.566 4.39681 13.021 3.94386 12.3288C3.49092 11.6366 3.24978 10.8272 3.25 10H1.75C1.74993 11.119 2.07628 12.2137 2.68908 13.1499C3.30188 14.0862 4.1745 14.8233 5.2 15.271L5.8 13.897ZM18.75 14.584V18H20.25V14.584H18.75ZM21.75 10C21.7502 10.8272 21.5091 11.6366 21.0561 12.3288C20.6032 13.021 19.9581 13.566 19.2 13.897L19.8 15.271C20.8255 14.8233 21.6981 14.0862 22.3109 13.1499C22.9237 12.2137 23.2501 11.119 23.25 10H21.75ZM16.25 6.5V7H17.75V6.5H16.25ZM7.25 6.5V7H8.75V6.5H7.25Z" fill="#1F1711"/>
<path opacity="0.7" d="M12.5 9.99507L11.981 10.5371C12.1206 10.6709 12.3066 10.7456 12.5 10.7456C12.6934 10.7456 12.8794 10.6709 13.019 10.5371L12.5 9.99507ZM11.986 13.0641C11.569 12.7581 11.108 12.3741 10.759 11.9721C10.391 11.5461 10.25 11.2151 10.25 11.0001H8.75C8.75 11.7701 9.191 12.4511 9.625 12.9531C10.078 13.4771 10.639 13.9361 11.099 14.2731L11.986 13.0641ZM10.25 11.0001C10.25 10.4241 10.513 10.1741 10.742 10.0931C10.992 10.0051 11.456 10.0331 11.982 10.5371L13.019 9.45307C12.194 8.66307 11.158 8.35807 10.246 8.67807C9.312 9.00507 8.75 9.90307 8.75 11.0001H10.25ZM13.9 14.2741C14.36 13.9361 14.922 13.4771 15.375 12.9531C15.809 12.4511 16.25 11.7701 16.25 11.0001H14.75C14.75 11.2151 14.609 11.5461 14.24 11.9721C13.892 12.3751 13.431 12.7581 13.014 13.0641L13.901 14.2741H13.9ZM16.25 11.0001C16.25 9.90307 15.687 9.00507 14.754 8.67807C13.842 8.35807 12.806 8.66407 11.981 9.45307L13.019 10.5371C13.544 10.0331 14.008 10.0051 14.259 10.0931C14.487 10.1731 14.75 10.4241 14.75 11.0001H16.25ZM11.1 14.2741C11.468 14.5441 11.882 14.8811 12.5 14.8811V13.3811C12.476 13.3811 12.46 13.3811 12.406 13.3521C12.26 13.2651 12.1197 13.1689 11.986 13.0641L11.099 14.2741H11.1ZM13.014 13.0641C12.8803 13.1689 12.74 13.2651 12.594 13.3521C12.54 13.3811 12.524 13.3811 12.5 13.3811V14.8811C13.118 14.8811 13.532 14.5441 13.9 14.2741L13.014 13.0641Z" fill="#1F1711"/>
<path opacity="0.7" d="M5.5 18H19.5" stroke="#1F1711" stroke-width="1.5" stroke-linecap="round" stroke-linejoin="round"/>
</svg>
