<svg width="10" height="10" viewBox="0 0 10 10" fill="none" xmlns="http://www.w3.org/2000/svg">
<path d="M2.19995 6.0338H2.49995C2.49992 5.97545 2.48288 5.91838 2.45091 5.86957C2.41894 5.82076 2.37343 5.78233 2.31995 5.759L2.19995 6.0338ZM7.79995 6.0338L7.67995 5.759C7.62648 5.78233 7.58097 5.82076 7.549 5.86957C7.51702 5.91838 7.49998 5.97545 7.49995 6.0338H7.79995ZM6.49995 3.0002C6.49995 3.07976 6.53156 3.15607 6.58782 3.21233C6.64408 3.26859 6.72039 3.3002 6.79995 3.3002C6.87952 3.3002 6.95582 3.26859 7.01208 3.21233C7.06834 3.15607 7.09995 3.07976 7.09995 3.0002H6.49995ZM2.89995 3.0002C2.89995 3.07976 2.93156 3.15607 2.98782 3.21233C3.04408 3.26859 3.12039 3.3002 3.19995 3.3002C3.27952 3.3002 3.35582 3.26859 3.41208 3.21233C3.46834 3.15607 3.49995 3.07976 3.49995 3.0002H2.89995ZM2.99995 1.9002C2.38995 1.9002 1.80494 2.14252 1.37361 2.57385C0.942272 3.00518 0.699951 3.5902 0.699951 4.2002H1.29995C1.29995 3.74933 1.47906 3.31693 1.79787 2.99811C2.11668 2.6793 2.54908 2.5002 2.99995 2.5002V1.9002ZM6.99995 2.5002C7.45082 2.5002 7.88322 2.6793 8.20203 2.99811C8.52084 3.31693 8.69995 3.74933 8.69995 4.2002H9.29995C9.29995 3.5902 9.05763 3.00518 8.6263 2.57385C8.19496 2.14252 7.60995 1.9002 6.99995 1.9002V2.5002ZM6.19995 8.7002H3.79995V9.3002H6.19995V8.7002ZM3.79995 8.7002C3.41435 8.7002 3.15515 8.6994 2.96195 8.6734C2.77755 8.6486 2.69835 8.6058 2.64635 8.5534L2.22235 8.9782C2.40435 9.1602 2.63115 9.2342 2.88235 9.2682C3.12475 9.301 3.43115 9.3002 3.79995 9.3002V8.7002ZM1.89995 7.4002C1.89995 7.769 1.89915 8.0754 1.93195 8.3178C1.96555 8.569 2.03995 8.7958 2.22195 8.9778L2.64635 8.5538C2.59435 8.5018 2.55155 8.4226 2.52635 8.2378C2.50075 8.045 2.49995 7.7858 2.49995 7.4002H1.89995ZM7.49995 7.4002C7.49995 7.7858 7.49915 8.045 7.47315 8.2382C7.44835 8.4226 7.40555 8.5018 7.35315 8.5538L7.77795 8.9778C7.95995 8.7958 8.03395 8.569 8.06795 8.3178C8.10075 8.0754 8.09995 7.769 8.09995 7.4002H7.49995ZM6.19995 9.3002C6.56875 9.3002 6.87515 9.301 7.11755 9.2682C7.36875 9.2346 7.59595 9.1602 7.77795 8.9778L7.35355 8.5538C7.30155 8.6058 7.22235 8.6486 7.03755 8.6738C6.84475 8.6994 6.58555 8.7002 6.19995 8.7002V9.3002ZM2.99995 2.5002C3.08555 2.5002 3.16915 2.5066 3.25115 2.5186L3.33875 1.925C3.22658 1.90845 3.11334 1.90016 2.99995 1.9002V2.5002ZM4.99995 0.700195C4.56106 0.700196 4.13319 0.837654 3.77642 1.09327C3.41965 1.34888 3.15189 1.70982 3.01075 2.1254L3.57875 2.3182C3.67962 2.02132 3.87093 1.76349 4.12583 1.58091C4.38073 1.39832 4.68641 1.30016 4.99995 1.3002V0.700195ZM3.01075 2.1254C2.93716 2.34276 2.89973 2.57072 2.89995 2.8002H3.49995C3.49995 2.631 3.52795 2.469 3.57915 2.3182L3.01075 2.1254ZM6.99995 1.9002C6.88515 1.9002 6.77195 1.9086 6.66115 1.925L6.74915 2.5186C6.83219 2.50634 6.91601 2.50019 6.99995 2.5002V1.9002ZM4.99995 1.3002C5.31343 1.30024 5.61902 1.39845 5.87384 1.58102C6.12866 1.7636 6.31991 2.02138 6.42075 2.3182L6.98875 2.1254C6.84763 1.70988 6.57994 1.349 6.22324 1.09339C5.86655 0.837776 5.43877 0.700279 4.99995 0.700195V1.3002ZM6.42075 2.3182C6.47195 2.469 6.49995 2.631 6.49995 2.8002H7.09995C7.09995 2.5646 7.06075 2.3378 6.98875 2.1254L6.42115 2.3182H6.42075ZM2.49995 7.4002V6.0338H1.89995V7.4002H2.49995ZM2.31995 5.759C2.0167 5.62659 1.75867 5.40859 1.5775 5.1317C1.39632 4.85482 1.29986 4.53109 1.29995 4.2002H0.699951C0.699921 4.64778 0.830465 5.08566 1.07558 5.46016C1.3207 5.83466 1.66975 6.12951 2.07995 6.3086L2.31995 5.759ZM7.49995 6.0338V7.4002H8.09995V6.0338H7.49995ZM8.69995 4.2002C8.70004 4.53109 8.60358 4.85482 8.42241 5.1317C8.24123 5.40859 7.9832 5.62659 7.67995 5.759L7.91995 6.3086C8.33015 6.12951 8.6792 5.83466 8.92432 5.46016C9.16944 5.08566 9.29998 4.64778 9.29995 4.2002H8.69995ZM6.49995 2.8002V3.0002H7.09995V2.8002H6.49995ZM2.89995 2.8002V3.0002H3.49995V2.8002H2.89995Z" fill="#312C27"/>
<path opacity="0.5" d="M5 4.19803L4.7924 4.41483C4.84825 4.46837 4.92263 4.49826 5 4.49826C5.07737 4.49826 5.15175 4.46837 5.2076 4.41483L5 4.19803ZM4.7944 5.42563C4.6276 5.30323 4.4432 5.14963 4.3036 4.98883C4.1564 4.81843 4.1 4.68603 4.1 4.60003H3.5C3.5 4.90803 3.6764 5.18043 3.85 5.38123C4.0312 5.59083 4.2556 5.77443 4.4396 5.90923L4.7944 5.42563ZM4.1 4.60003C4.1 4.36963 4.2052 4.26963 4.2968 4.23723C4.3968 4.20203 4.5824 4.21323 4.7928 4.41483L5.2076 3.98123C4.8776 3.66523 4.4632 3.54323 4.0984 3.67123C3.7248 3.80203 3.5 4.16123 3.5 4.60003H4.1ZM5.56 5.90963C5.744 5.77443 5.9688 5.59083 6.15 5.38123C6.3236 5.18043 6.5 4.90803 6.5 4.60003H5.9C5.9 4.68603 5.8436 4.81843 5.696 4.98883C5.5568 5.15003 5.3724 5.30323 5.2056 5.42563L5.5604 5.90963H5.56ZM6.5 4.60003C6.5 4.16123 6.2748 3.80203 5.9016 3.67123C5.5368 3.54323 5.1224 3.66563 4.7924 3.98123L5.2076 4.41483C5.4176 4.21323 5.6032 4.20203 5.7036 4.23723C5.7948 4.26923 5.9 4.36963 5.9 4.60003H6.5ZM4.44 5.90963C4.5872 6.01763 4.7528 6.15243 5 6.15243V5.55243C4.9904 5.55243 4.984 5.55243 4.9624 5.54083C4.90401 5.50604 4.84789 5.46756 4.7944 5.42563L4.4396 5.90963H4.44ZM5.2056 5.42563C5.15211 5.46756 5.09599 5.50604 5.0376 5.54083C5.016 5.55243 5.0096 5.55243 5 5.55243V6.15243C5.2472 6.15243 5.4128 6.01763 5.56 5.90963L5.2056 5.42563Z" fill="#312C27"/>
<path opacity="0.5" d="M2.19995 7.40039H7.79995" stroke="#312C27" stroke-width="1.5" stroke-linecap="round" stroke-linejoin="round"/>
</svg>
