<svg width="24" height="24" viewBox="0 0 24 24" fill="none" xmlns="http://www.w3.org/2000/svg">
<path d="M12 2.625C10.1458 2.625 8.33324 3.17483 6.79153 4.20497C5.24982 5.23511 4.04821 6.69929 3.33863 8.41234C2.62906 10.1254 2.44341 12.0104 2.80514 13.829C3.16688 15.6475 4.05976 17.318 5.37088 18.6291C6.682 19.9402 8.35246 20.8331 10.171 21.1949C11.9896 21.5566 13.8746 21.3709 15.5877 20.6614C17.3007 19.9518 18.7649 18.7502 19.795 17.2085C20.8252 15.6668 21.375 13.8542 21.375 12C21.3723 9.51443 20.3837 7.13145 18.6261 5.37389C16.8686 3.61633 14.4856 2.62773 12 2.625ZM12 20.625C10.2941 20.625 8.62658 20.1192 7.20821 19.1714C5.78984 18.2237 4.68435 16.8767 4.03154 15.3006C3.37874 13.7246 3.20793 11.9904 3.54073 10.3173C3.87353 8.64426 4.69498 7.10743 5.90121 5.9012C7.10744 4.69498 8.64426 3.87352 10.3174 3.54073C11.9904 3.20793 13.7246 3.37873 15.3006 4.03154C16.8767 4.68434 18.2237 5.78983 19.1714 7.20821C20.1192 8.62658 20.625 10.2941 20.625 12C20.6225 14.2867 19.713 16.4791 18.0961 18.0961C16.4791 19.713 14.2867 20.6225 12 20.625ZM15.3 14.4759C14.7804 15.1683 14.0562 15.6797 13.2298 15.9376C12.4035 16.1956 11.5169 16.187 10.6957 15.9131C9.87451 15.6393 9.16028 15.114 8.65416 14.4117C8.14805 13.7094 7.87571 12.8657 7.87571 12C7.87571 11.1343 8.14805 10.2906 8.65416 9.58831C9.16028 8.88601 9.87451 8.36073 10.6957 8.08687C11.5169 7.813 12.4035 7.80443 13.2298 8.06237C14.0562 8.32031 14.7804 8.83168 15.3 9.52406C15.3296 9.56346 15.3512 9.6083 15.3635 9.65603C15.3757 9.70376 15.3785 9.75344 15.3716 9.80223C15.3646 9.85103 15.3482 9.89798 15.3231 9.94041C15.298 9.98284 15.2649 10.0199 15.2255 10.0495C15.1861 10.0791 15.1412 10.1007 15.0935 10.113C15.0458 10.1253 14.9961 10.128 14.9473 10.1211C14.8985 10.1142 14.8516 10.0977 14.8091 10.0726C14.7667 10.0476 14.7296 10.0144 14.7 9.975C14.275 9.40832 13.6825 8.98972 13.0063 8.77852C12.3302 8.56731 11.6047 8.57419 10.9327 8.79819C10.2607 9.0222 9.67624 9.45196 9.26206 10.0266C8.84788 10.6012 8.625 11.2916 8.625 12C8.625 12.7084 8.84788 13.3988 9.26206 13.9734C9.67624 14.548 10.2607 14.9778 10.9327 15.2018C11.6047 15.4258 12.3302 15.4327 13.0063 15.2215C13.6825 15.0103 14.275 14.5917 14.7 14.025C14.7598 13.9454 14.8488 13.8929 14.9473 13.8789C15.0458 13.8649 15.1459 13.8907 15.2255 13.9505C15.305 14.0103 15.3576 14.0992 15.3716 14.1978C15.3855 14.2963 15.3598 14.3964 15.3 14.4759Z" fill="#DEC5B1"/>
</svg>
