<svg width="34" height="34" viewBox="0 0 34 34" fill="none" xmlns="http://www.w3.org/2000/svg">
<path d="M30.7734 5.08386H26.3645C26.5345 4.46033 26.5366 3.80295 26.3707 3.17832C26.2048 2.5537 25.8767 1.98403 25.4197 1.52706C24.7196 0.841179 23.7785 0.457032 22.7984 0.457032C21.8183 0.457032 20.8772 0.841179 20.1771 1.52706L17.0001 4.7115L13.8323 1.52706C13.4882 1.18258 13.0796 0.909302 12.6298 0.722851C12.18 0.536399 11.6979 0.44043 11.211 0.44043C10.7241 0.44043 10.242 0.536399 9.79223 0.722851C9.34245 0.909302 8.93383 1.18258 8.58974 1.52706C8.13272 1.98403 7.80463 2.5537 7.63872 3.17832C7.4728 3.80295 7.47495 4.46033 7.64496 5.08386H3.22675C2.48978 5.08386 1.78299 5.37662 1.26188 5.89773C0.740758 6.41885 0.447998 7.12564 0.447998 7.86261V9.71511C0.448275 10.2655 0.613423 10.8032 0.922148 11.2589C1.23087 11.7145 1.66902 12.0672 2.18009 12.2716V28.9255C2.18351 30.1528 2.67254 31.3288 3.54033 32.1965C4.40811 33.0643 5.5841 33.5534 6.81134 33.5568H27.1888C28.4171 33.5568 29.5951 33.0688 30.4636 32.2003C31.3321 31.3318 31.8201 30.1538 31.8201 28.9255V12.2901C32.3326 12.0814 32.7717 11.7254 33.0817 11.267C33.3917 10.8086 33.5586 10.2685 33.5614 9.71511V7.86261C33.5614 7.49691 33.4893 7.13482 33.349 6.79708C33.2088 6.45934 33.0033 6.1526 32.7443 5.89445C32.4853 5.6363 32.1779 5.43181 31.8396 5.29271C31.5014 5.15361 31.1391 5.08264 30.7734 5.08386ZM9.89575 2.84048C10.2428 2.49545 10.7124 2.30179 11.2018 2.30179C11.6912 2.30179 12.1607 2.49545 12.5078 2.84048L14.7493 5.08386H9.61787C9.40663 4.73271 9.31921 4.32088 9.36958 3.9142C9.41996 3.50752 9.60522 3.12947 9.89575 2.84048ZM15.1476 31.7043H6.81134C6.07437 31.7043 5.36758 31.4115 4.84646 30.8904C4.32535 30.3693 4.03259 29.6625 4.03259 28.9255V12.4939H15.1476V31.7043ZM15.1476 10.6414H3.22675C2.98109 10.6414 2.7455 10.5438 2.57179 10.3701C2.39808 10.1964 2.3005 9.96076 2.3005 9.71511V7.86261C2.3005 7.61695 2.39808 7.38135 2.57179 7.20765C2.7455 7.03394 2.98109 6.93636 3.22675 6.93636H15.1476V10.6414ZM21.5017 2.84048C21.8203 2.52371 22.2432 2.33354 22.6916 2.30538C23.14 2.27721 23.5834 2.41298 23.9392 2.68739C24.2949 2.9618 24.5388 3.35616 24.6255 3.79703C24.7121 4.2379 24.6356 4.69523 24.4101 5.08386H19.2601L21.5017 2.84048ZM29.9676 28.9255C29.9676 29.6625 29.6748 30.3693 29.1537 30.8904C28.6326 31.4115 27.9258 31.7043 27.1888 31.7043H18.8526V12.4939H29.9676V28.9255ZM31.7089 9.71511C31.7089 9.96076 31.6113 10.1964 31.4376 10.3701C31.2639 10.5438 31.0283 10.6414 30.7827 10.6414H18.8526V6.93636H30.7827C31.0283 6.93636 31.2639 7.03394 31.4376 7.20765C31.6113 7.38135 31.7089 7.61695 31.7089 7.86261V9.71511Z" fill="#704174"/>
</svg>
