<svg width="36" height="36" viewBox="0 0 36 36" fill="none" xmlns="http://www.w3.org/2000/svg">
<path d="M24 10.5C24 10.1022 24.158 9.72064 24.4393 9.43934C24.7206 9.15804 25.1022 9 25.5 9C25.8978 9 26.2794 9.15804 26.5607 9.43934C26.842 9.72064 27 10.1022 27 10.5C27 10.8978 26.842 11.2794 26.5607 11.5607C26.2794 11.842 25.8978 12 25.5 12C25.1022 12 24.7206 11.842 24.4393 11.5607C24.158 11.2794 24 10.8978 24 10.5Z" fill="#FFF9F4"/>
<path fill-rule="evenodd" clip-rule="evenodd" d="M18 10.875C16.1103 10.875 14.2981 11.6257 12.9619 12.9619C11.6257 14.2981 10.875 16.1103 10.875 18C10.875 19.8897 11.6257 21.7019 12.9619 23.0381C14.2981 24.3743 16.1103 25.125 18 25.125C19.8897 25.125 21.7019 24.3743 23.0381 23.0381C24.3743 21.7019 25.125 19.8897 25.125 18C25.125 16.1103 24.3743 14.2981 23.0381 12.9619C21.7019 11.6257 19.8897 10.875 18 10.875ZM13.125 18C13.125 16.7071 13.6386 15.4671 14.5529 14.5529C15.4671 13.6386 16.7071 13.125 18 13.125C19.2929 13.125 20.5329 13.6386 21.4471 14.5529C22.3614 15.4671 22.875 16.7071 22.875 18C22.875 19.2929 22.3614 20.5329 21.4471 21.4471C20.5329 22.3614 19.2929 22.875 18 22.875C16.7071 22.875 15.4671 22.3614 14.5529 21.4471C13.6386 20.5329 13.125 19.2929 13.125 18Z" fill="#FFF9F4"/>
<path fill-rule="evenodd" clip-rule="evenodd" d="M25.8871 4.24833C20.6451 3.66722 15.355 3.66722 10.1131 4.24833C7.09508 4.58583 4.65758 6.96333 4.30358 9.99633C3.68168 15.3132 3.68168 20.6845 4.30358 26.0013C4.65758 29.0343 7.09358 31.4118 10.1131 31.7493C15.3551 32.3298 20.6451 32.3298 25.8871 31.7493C28.9051 31.4118 31.3426 29.0343 31.6966 26.0013C32.3186 20.6845 32.3186 15.3132 31.6966 9.99633C31.3426 6.96333 28.9066 4.58583 25.8871 4.24833ZM10.3621 6.48333C15.4385 5.92064 20.5616 5.92064 25.6381 6.48333C27.6331 6.70833 29.2306 8.28183 29.4631 10.2588C30.0645 15.4013 30.0645 20.5964 29.4631 25.7388C29.3428 26.7064 28.8999 27.6052 28.2058 28.29C27.5118 28.9747 26.6072 29.4056 25.6381 29.5128C20.5616 30.0756 15.4385 30.0756 10.3621 29.5128C9.39299 29.4056 8.48836 28.9747 7.79432 28.29C7.10027 27.6052 6.65734 26.7064 6.53708 25.7388C5.93566 20.5964 5.93566 15.4013 6.53708 10.2588C6.65734 9.29127 7.10027 8.3925 7.79432 7.70771C8.48836 7.02292 9.39299 6.59059 10.3621 6.48333Z" fill="#FFF9F4"/>
</svg>
