<svg width="20" height="20" viewBox="0 0 20 20" fill="none" xmlns="http://www.w3.org/2000/svg">
<path d="M14 5C14 4.73478 14.1054 4.48043 14.2929 4.29289C14.4804 4.10536 14.7348 4 15 4C15.2652 4 15.5196 4.10536 15.7071 4.29289C15.8946 4.48043 16 4.73478 16 5C16 5.26522 15.8946 5.51957 15.7071 5.70711C15.5196 5.89464 15.2652 6 15 6C14.7348 6 14.4804 5.89464 14.2929 5.70711C14.1054 5.51957 14 5.26522 14 5Z" fill="#CEAAD0"/>
<path fill-rule="evenodd" clip-rule="evenodd" d="M10 5.25C8.74022 5.25 7.53204 5.75045 6.64124 6.64124C5.75045 7.53204 5.25 8.74022 5.25 10C5.25 11.2598 5.75045 12.468 6.64124 13.3588C7.53204 14.2496 8.74022 14.75 10 14.75C11.2598 14.75 12.468 14.2496 13.3588 13.3588C14.2496 12.468 14.75 11.2598 14.75 10C14.75 8.74022 14.2496 7.53204 13.3588 6.64124C12.468 5.75045 11.2598 5.25 10 5.25ZM6.75 10C6.75 9.13805 7.09241 8.3114 7.7019 7.7019C8.3114 7.09241 9.13805 6.75 10 6.75C10.862 6.75 11.6886 7.09241 12.2981 7.7019C12.9076 8.3114 13.25 9.13805 13.25 10C13.25 10.862 12.9076 11.6886 12.2981 12.2981C11.6886 12.9076 10.862 13.25 10 13.25C9.13805 13.25 8.3114 12.9076 7.7019 12.2981C7.09241 11.6886 6.75 10.862 6.75 10Z" fill="#CEAAD0"/>
<path fill-rule="evenodd" clip-rule="evenodd" d="M15.2581 0.832545C11.7634 0.445141 8.23669 0.445141 4.74206 0.832545C2.73006 1.05755 1.10506 2.64255 0.869056 4.66455C0.454455 8.20913 0.454455 11.79 0.869056 15.3345C1.10506 17.3565 2.72906 18.9415 4.74206 19.1665C8.23671 19.5536 11.7634 19.5536 15.2581 19.1665C17.2701 18.9415 18.8951 17.3565 19.1311 15.3345C19.5457 11.79 19.5457 8.20913 19.1311 4.66455C18.8951 2.64255 17.2711 1.05755 15.2581 0.832545ZM4.90806 2.32255C8.29236 1.94742 11.7078 1.94742 15.0921 2.32255C16.4221 2.47255 17.4871 3.52155 17.6421 4.83955C18.043 8.26786 18.043 11.7312 17.6421 15.1595C17.5619 15.8046 17.2666 16.4038 16.8039 16.8603C16.3412 17.3168 15.7381 17.604 15.0921 17.6755C11.7078 18.0507 8.29236 18.0507 4.90806 17.6755C4.262 17.604 3.65891 17.3168 3.19621 16.8603C2.73351 16.4038 2.43823 15.8046 2.35806 15.1595C1.9571 11.7312 1.9571 8.26786 2.35806 4.83955C2.43823 4.1945 2.73351 3.59532 3.19621 3.1388C3.65891 2.68227 4.262 2.39405 4.90806 2.32255Z" fill="#CEAAD0"/>
</svg>
