<svg width="240" height="79" viewBox="0 0 240 79" fill="none" xmlns="http://www.w3.org/2000/svg">
<path d="M129.676 65.0932C126.946 62.7435 124.31 60.2349 121.77 57.5676C119.293 54.8368 116.975 52.0425 114.816 49.1847C112.72 46.3269 110.783 43.4373 109.005 40.516C107.29 37.5311 105.829 34.6098 104.623 31.752C102.464 34.1018 100.304 36.4833 98.1451 38.8965C96.0493 41.2463 94.1759 43.6278 92.5247 46.0411C90.8735 48.3909 89.5399 50.7724 88.5237 53.1856C87.4441 55.5354 86.9043 57.8852 86.9043 60.2349C86.9043 63.0292 87.3806 65.4425 88.3332 67.4747C89.2223 69.4435 90.429 71.0629 91.9531 72.333C93.4773 73.6032 95.2237 74.524 97.1925 75.0956C99.1612 75.6672 101.193 75.9529 103.289 75.9529C107.481 75.9529 111.926 74.9686 116.626 72.9999C121.325 71.0311 125.675 68.3956 129.676 65.0932ZM117.864 8.60364C117.864 6.38089 117.356 4.79321 116.34 3.84061C115.387 2.8245 114.339 2.31644 113.196 2.31644C112.244 2.31644 111.228 2.63397 110.148 3.26905C109.132 3.90412 108.179 4.82497 107.29 6.0316C106.465 7.17473 105.766 8.57189 105.194 10.2231C104.623 11.8743 104.337 13.6842 104.337 15.6529C104.337 19.2728 105.004 23.115 106.337 27.1795C107.925 25.5283 109.418 23.9089 110.815 22.3212C112.212 20.7335 113.419 19.1776 114.435 17.6534C115.514 16.0657 116.34 14.5416 116.911 13.0809C117.547 11.5567 117.864 10.0643 117.864 8.60364ZM154.539 78.1439C154.539 78.3345 154.412 78.525 154.158 78.7155C153.904 78.906 153.523 79.0013 153.015 79.0013C149.205 77.7947 145.458 76.1117 141.774 73.9525C138.091 71.7297 134.503 69.1577 131.01 66.2364C128.597 68.0781 126.088 69.761 123.484 71.2852C120.881 72.8093 118.213 74.1112 115.483 75.1909C112.815 76.2705 110.116 77.0961 107.385 77.6676C104.718 78.2392 102.146 78.525 99.6692 78.525C97.256 78.525 94.9697 78.1757 92.8105 77.4771C90.6512 76.842 88.7778 75.8577 87.1901 74.524C85.6024 73.1269 84.364 71.4122 83.4749 69.38C82.5223 67.3477 82.046 64.9662 82.046 62.2354C82.046 59.3141 82.7128 56.4563 84.0465 53.6619C85.3801 50.8041 87.0948 48.0098 89.1906 45.279C91.2863 42.5482 93.6043 39.8809 96.1446 37.2771C98.7484 34.6733 101.289 32.133 103.765 29.6563C101.924 24.7027 101.003 20.2254 101.003 16.2245C101.003 13.8747 101.416 11.7155 102.241 9.74677C103.13 7.77805 104.242 6.09511 105.575 4.69795C106.909 3.3008 108.37 2.22118 109.957 1.45909C111.609 0.6335 113.165 0.220703 114.625 0.220703C116.34 0.220703 117.896 0.792267 119.293 1.9354C120.69 3.01501 121.389 4.82497 121.389 7.36525C121.389 8.95293 120.976 10.6041 120.15 12.3188C119.388 14.0335 118.34 15.8117 117.007 17.6534C115.737 19.4316 114.212 21.3051 112.434 23.2738C110.719 25.179 108.91 27.1477 107.004 29.1799C109.1 34.9591 112.212 40.8335 116.34 46.8032C120.531 52.7093 125.612 58.2345 131.582 63.3785C134.82 60.4572 137.424 57.2501 139.393 53.7572C141.362 50.2643 142.346 46.6127 142.346 42.8022C142.346 41.5321 142.156 40.2619 141.774 38.9918C141.457 37.6582 140.79 36.261 139.774 34.8003C139.774 34.6733 139.965 34.5463 140.346 34.4193C140.727 34.2288 141.076 34.1335 141.393 34.1335C142.283 34.1335 142.981 34.451 143.489 35.0861C144.061 35.6577 144.474 36.3563 144.728 37.1818C145.045 38.0074 145.236 38.8648 145.299 39.7539C145.426 40.5795 145.49 41.2463 145.49 41.7544C145.49 45.9458 144.315 50.0103 141.965 53.9477C139.679 57.8217 136.694 61.3781 133.01 64.6169C139.171 69.888 146.125 74.1747 153.873 77.4771C154.317 77.7311 154.539 77.9534 154.539 78.1439Z" fill="#D0D0D0"/>
<path d="M18.24 44.1278C18.24 42.1438 18.112 40.4958 17.856 39.1838C17.632 37.8718 17.312 37.2158 16.896 37.2158C16.64 37.2158 16.4 37.4078 16.176 37.7918C15.952 38.1438 15.76 38.6558 15.6 39.3278C15.472 39.9678 15.36 40.7358 15.264 41.6318C15.2 42.4958 15.168 43.4398 15.168 44.4638C15.168 46.2878 15.296 48.2558 15.552 50.3678C15.808 52.4478 16.256 54.4638 16.896 56.4158C17.344 54.3678 17.68 52.2718 17.904 50.1278C18.128 47.9518 18.24 45.9518 18.24 44.1278ZM38.352 22.3358C38.352 22.4958 38.288 22.6238 38.16 22.7198C38.032 22.8158 37.872 22.9278 37.68 23.0558C36.72 23.6318 35.936 24.4318 35.328 25.4558C34.72 26.4798 34.224 27.5998 33.84 28.8158C33.488 30.0318 33.248 31.2798 33.12 32.5598C32.992 33.8078 32.928 34.9598 32.928 36.0158C32.928 36.7518 32.96 37.6638 33.024 38.7518C33.12 39.8078 33.216 40.9758 33.312 42.2558C33.44 43.5358 33.536 44.8958 33.6 46.3358C33.696 47.7438 33.744 49.1838 33.744 50.6558C33.744 52.7358 33.616 54.7518 33.36 56.7038C33.136 58.6558 32.672 60.3998 31.968 61.9358C31.296 63.4718 30.352 64.7038 29.136 65.6318C27.92 66.5598 26.336 67.0238 24.384 67.0238C23.488 67.0238 22.64 66.8478 21.84 66.4958C21.072 66.1758 20.352 65.7118 19.68 65.1038C19.04 64.4958 18.448 63.7918 17.904 62.9918C17.392 62.1918 16.928 61.3118 16.512 60.3518C16.096 61.4718 15.6 62.5118 15.024 63.4718C14.48 64.4318 13.872 65.2638 13.2 65.9678C12.528 66.6718 11.792 67.2158 10.992 67.5998C10.192 67.9838 9.34399 68.1758 8.44799 68.1758C7.07199 68.1758 5.90399 67.8238 4.94399 67.1198C4.01599 66.4158 3.24799 65.4878 2.63999 64.3358C2.03199 63.2158 1.55199 61.9358 1.19999 60.4958C0.879991 59.0238 0.639991 57.5358 0.479991 56.0318C0.319991 54.4958 0.207991 53.0078 0.143991 51.5678C0.111991 50.0958 0.0799912 48.7998 0.0479912 47.6798C-0.0160088 45.6638 0.0159912 43.7598 0.143991 41.9678C0.303991 40.1438 0.479991 38.5118 0.671991 37.0718C0.863991 35.5998 1.05599 34.3358 1.24799 33.2798C1.43999 32.2238 1.56799 31.4398 1.63199 30.9278C1.66399 30.7358 1.85599 30.6078 2.20799 30.5438C2.59199 30.4798 2.92799 30.4478 3.21599 30.4478C3.43999 30.4478 3.63199 30.4798 3.79199 30.5438C3.95199 30.5758 4.03199 30.6718 4.03199 30.8318C4.03199 31.0238 3.95199 31.3598 3.79199 31.8398C3.63199 32.2878 3.39199 33.1518 3.07199 34.4318C2.94399 35.0078 2.79999 35.8398 2.63999 36.9278C2.51199 37.9838 2.38399 39.1838 2.25599 40.5278C2.15999 41.8718 2.07999 43.3118 2.01599 44.8478C1.95199 46.3518 1.91999 47.8238 1.91999 49.2638C1.91999 50.3838 1.96799 51.6158 2.06399 52.9598C2.15999 54.2718 2.31999 55.5838 2.54399 56.8958C2.76799 58.1758 3.07199 59.4238 3.45599 60.6398C3.83999 61.8558 4.30399 62.9278 4.84799 63.8558C5.42399 64.7838 6.09599 65.5198 6.86399 66.0638C7.63199 66.6398 8.52799 66.9278 9.55199 66.9278C10.32 66.9278 11.024 66.7358 11.664 66.3518C12.304 65.9678 12.896 65.4238 13.44 64.7198C13.984 64.0478 14.464 63.2478 14.88 62.3198C15.328 61.3918 15.728 60.3838 16.08 59.2958C15.344 57.2798 14.8 55.1358 14.448 52.8638C14.096 50.5918 13.92 48.4958 13.92 46.5758C13.92 45.1678 13.968 43.7758 14.064 42.3998C14.192 41.0238 14.368 39.7918 14.592 38.7038C14.816 37.6158 15.104 36.7358 15.456 36.0638C15.808 35.3918 16.224 35.0558 16.704 35.0558C17.088 35.0558 17.424 35.2958 17.712 35.7758C18.032 36.2558 18.288 36.9118 18.48 37.7438C18.704 38.5758 18.864 39.5678 18.96 40.7198C19.088 41.8398 19.152 43.0558 19.152 44.3678C19.152 46.4798 19.008 48.7038 18.72 51.0398C18.432 53.3438 17.984 55.5998 17.376 57.8078C17.792 58.9278 18.272 59.9678 18.816 60.9278C19.36 61.8558 19.968 62.6718 20.64 63.3758C21.344 64.0798 22.112 64.6238 22.944 65.0078C23.808 65.4238 24.752 65.6318 25.776 65.6318C27.184 65.6318 28.336 65.2798 29.232 64.5758C30.128 63.9038 30.832 62.9758 31.344 61.7918C31.856 60.5758 32.208 59.1838 32.4 57.6158C32.592 56.0158 32.688 54.3038 32.688 52.4798C32.688 50.8478 32.624 49.1678 32.496 47.4398C32.4 45.7118 32.288 43.9998 32.16 42.3038C32.032 40.5758 31.904 38.9118 31.776 37.3118C31.68 35.6798 31.632 34.1758 31.632 32.7998C31.632 31.8078 31.776 30.6558 32.064 29.3438C32.384 28.0318 32.8 26.7998 33.312 25.6478C33.856 24.4638 34.464 23.4718 35.136 22.6718C35.84 21.8398 36.576 21.4238 37.344 21.4238C37.568 21.4238 37.792 21.5358 38.016 21.7598C38.24 21.9518 38.352 22.1438 38.352 22.3358Z" fill="black"/>
<path d="M53.3396 54.2078C53.3396 53.7278 53.2596 53.3438 53.0996 53.0558C52.9396 52.7358 52.6836 52.5758 52.3316 52.5758C51.7876 52.5758 51.3716 52.8478 51.0836 53.3918C50.7956 53.9038 50.6676 54.5598 50.6996 55.3598C50.7956 57.0558 51.0996 58.4798 51.6116 59.6318C52.1556 58.8958 52.5716 58.0638 52.8596 57.1358C53.1796 56.2078 53.3396 55.2318 53.3396 54.2078ZM66.2996 54.1598C66.0756 54.6398 65.8356 55.1358 65.5796 55.6478C65.3236 56.1278 65.0356 56.6078 64.7156 57.0878C63.0836 59.5198 61.4356 61.3278 59.7716 62.5118C58.1076 63.6958 56.5556 64.2878 55.1156 64.2878C53.2916 64.2878 51.8996 63.4238 50.9396 61.6958C49.8196 62.8158 48.5556 63.6638 47.1476 64.2398C45.7716 64.8158 44.4116 65.1038 43.0676 65.1038C42.2676 65.1038 41.4996 64.9918 40.7636 64.7678C40.0596 64.5438 39.4516 64.2078 38.9396 63.7598C38.3956 63.2798 37.9636 62.6878 37.6436 61.9838C37.3236 61.2478 37.1636 60.3998 37.1636 59.4398C37.1636 58.2878 37.4356 57.1198 37.9796 55.9358C38.4916 54.7198 39.2116 53.6318 40.1396 52.6718C41.0996 51.6798 42.2196 50.8638 43.4996 50.2238C44.7796 49.5838 46.1716 49.2638 47.6756 49.2638C48.8916 49.2638 49.8356 49.4398 50.5076 49.7918C51.1796 50.1118 51.5156 50.4158 51.5156 50.7038C51.5156 50.8318 51.4516 50.9278 51.3236 50.9918C51.1956 51.0558 51.0836 51.0878 50.9876 51.0878C50.9556 51.0558 50.9236 51.0398 50.8916 51.0398H50.8436C50.4596 50.6878 50.0276 50.4158 49.5476 50.2238C49.0676 49.9998 48.3636 49.8878 47.4356 49.8878C46.1876 49.8878 45.0516 50.1598 44.0276 50.7038C43.0356 51.2158 42.1876 51.9038 41.4836 52.7678C40.7796 53.5998 40.2356 54.5278 39.8516 55.5518C39.4676 56.5758 39.2756 57.5838 39.2756 58.5758C39.2756 60.4958 39.7236 61.8878 40.6196 62.7518C41.5156 63.6158 42.6356 64.0478 43.9796 64.0478C45.0676 64.0478 46.2036 63.7758 47.3876 63.2318C48.5716 62.6878 49.6276 61.9198 50.5556 60.9278C50.0436 59.7758 49.7876 58.2718 49.7876 56.4158C49.7876 55.1998 50.0116 54.1438 50.4596 53.2478C50.9076 52.3518 51.5476 51.9038 52.3796 51.9038C53.5316 51.9038 54.1076 52.5758 54.1076 53.9198C54.1076 55.2638 53.9156 56.4798 53.5316 57.5678C53.1476 58.6238 52.6356 59.5838 51.9956 60.4478C52.8916 62.1118 54.1396 62.9438 55.7396 62.9438C56.9556 62.9438 58.2516 62.4318 59.6276 61.4078C61.0356 60.3838 62.4116 58.8958 63.7556 56.9438C64.0756 56.4638 64.3636 55.9678 64.6196 55.4558C64.8756 54.9438 65.1316 54.4318 65.3876 53.9198L66.2996 54.1598Z" fill="black"/>
<path d="M72.9667 32.7038C72.9667 30.8798 72.6627 29.4238 72.0547 28.3358C71.4787 27.2158 70.5027 26.6558 69.1267 26.6558C68.6467 26.6558 68.1987 26.8158 67.7827 27.1358C67.3987 27.4238 67.0627 27.8238 66.7747 28.3358C66.4867 28.8478 66.2627 29.4398 66.1027 30.1118C65.9427 30.7838 65.8627 31.5038 65.8627 32.2718C65.8627 34.3838 65.8787 36.3038 65.9107 38.0318C65.9427 39.7598 65.9747 41.3918 66.0067 42.9278C66.0707 44.4638 66.1347 45.9518 66.1987 47.3918C66.2627 48.8318 66.3267 50.3038 66.3907 51.8078C67.3187 50.5598 68.1827 49.1358 68.9827 47.5358C69.7827 45.9038 70.4707 44.2398 71.0467 42.5438C71.6547 40.8158 72.1187 39.1038 72.4387 37.4078C72.7907 35.7118 72.9667 34.1438 72.9667 32.7038ZM90.3427 54.1598C90.1187 54.6398 89.8787 55.1358 89.6227 55.6478C89.3987 56.1598 89.1107 56.6398 88.7587 57.0878C86.9987 59.5838 84.9987 61.5518 82.7587 62.9918C80.5187 64.3998 78.2947 65.1038 76.0867 65.1038C74.7107 65.1038 73.3987 64.7838 72.1507 64.1438C70.9027 63.5358 69.7987 62.5438 68.8387 61.1678C68.7107 61.0078 68.6467 60.8638 68.6467 60.7358C68.6467 60.4478 68.8387 60.3038 69.2227 60.3038C69.2547 60.3038 69.3667 60.3358 69.5587 60.3998C69.8147 60.3998 70.1027 60.4958 70.4227 60.6878C70.7747 60.8478 71.2707 60.9278 71.9107 60.9278C72.9027 60.9278 73.8307 60.7518 74.6947 60.3998C75.5587 60.0478 76.2947 59.5998 76.9027 59.0558C77.5427 58.4798 78.0387 57.8398 78.3907 57.1358C78.7427 56.3998 78.9187 55.6478 78.9187 54.8798C78.9187 53.9198 78.6627 53.0878 78.1507 52.3838C77.6707 51.6798 76.8387 51.3278 75.6547 51.3278C74.4387 51.3278 73.3187 51.7598 72.2947 52.6238C71.2707 53.4558 70.3427 54.4798 69.5107 55.6958C68.7107 56.8798 68.0227 58.1438 67.4467 59.4878C66.8707 60.7998 66.4387 61.9518 66.1507 62.9438C65.9907 63.4878 65.8467 63.8238 65.7187 63.9518C65.5907 64.0798 65.4467 64.1438 65.2867 64.1438C64.9347 64.1438 64.7747 63.8078 64.8067 63.1358C64.8067 62.8478 64.8227 62.4958 64.8547 62.0798C64.8867 61.6638 64.9187 61.2158 64.9507 60.7358C64.9507 60.2558 64.9667 59.7758 64.9987 59.2958C65.0307 58.7838 65.0467 58.3198 65.0467 57.9038C65.0467 56.4638 65.0147 54.8158 64.9507 52.9598C64.8867 51.0718 64.8067 49.1358 64.7107 47.1518C64.6147 45.1358 64.5347 43.1358 64.4707 41.1518C64.4067 39.1678 64.3747 37.3438 64.3747 35.6798C64.3747 34.3678 64.4707 33.1038 64.6627 31.8878C64.8547 30.6398 65.1587 29.5518 65.5747 28.6238C65.9907 27.6638 66.5187 26.9118 67.1587 26.3678C67.7987 25.7918 68.5507 25.5038 69.4147 25.5038C70.3107 25.5038 71.0627 25.6638 71.6707 25.9838C72.3107 26.2718 72.8227 26.7038 73.2067 27.2798C73.5907 27.8238 73.8627 28.4958 74.0227 29.2958C74.2147 30.0638 74.3107 30.9118 74.3107 31.8398C74.3107 33.4398 74.0867 35.1998 73.6387 37.1198C73.1907 39.0078 72.5987 40.9118 71.8627 42.8318C71.1267 44.7518 70.2787 46.6078 69.3187 48.3998C68.3907 50.1598 67.4307 51.6958 66.4387 53.0078C66.5027 53.9678 66.5347 54.9598 66.5347 55.9838C66.5667 57.0078 66.6147 58.0958 66.6787 59.2478C67.4787 57.5198 68.3587 56.0318 69.3187 54.7838C69.7347 54.2398 70.1987 53.7118 70.7107 53.1998C71.2547 52.6558 71.8147 52.1758 72.3907 51.7598C72.9987 51.3438 73.6387 51.0078 74.3107 50.7518C75.0147 50.4958 75.7507 50.3678 76.5187 50.3678C77.7347 50.3678 78.7907 50.6718 79.6867 51.2798C80.5827 51.8878 81.0307 52.8638 81.0307 54.2078C81.0307 55.4878 80.7107 56.5758 80.0707 57.4718C79.4627 58.3678 78.6947 59.1198 77.7667 59.7278C76.8387 60.3038 75.8467 60.7358 74.7907 61.0238C73.7347 61.3118 72.7747 61.4878 71.9107 61.5518C71.8467 61.5518 71.8147 61.5678 71.8147 61.5998C71.8147 61.6638 71.8627 61.7598 71.9587 61.8878C72.5987 62.6238 73.3187 63.1518 74.1187 63.4718C74.9187 63.7918 75.7507 63.9518 76.6147 63.9518C77.6707 63.9518 78.7427 63.7598 79.8307 63.3758C80.9187 62.9598 81.9587 62.4318 82.9507 61.7918C83.9427 61.1198 84.8547 60.3678 85.6867 59.5358C86.5507 58.6718 87.2547 57.8078 87.7987 56.9438C88.1187 56.4638 88.4067 55.9678 88.6627 55.4558C88.9187 54.9438 89.1747 54.4318 89.4307 53.9198L90.3427 54.1598Z" fill="black"/>
<path d="M97.1096 51.1838C97.1096 50.3198 96.8856 49.6158 96.4376 49.0718C96.0216 48.4958 95.3336 48.2078 94.3736 48.2078C93.8616 48.2078 93.3976 48.3678 92.9816 48.6878C92.5656 49.0078 92.2136 49.4398 91.9256 49.9838C91.6376 50.4958 91.4136 51.1038 91.2536 51.8078C91.0936 52.5118 91.0136 53.2478 91.0136 54.0158C91.0136 55.2318 91.1416 56.3198 91.3976 57.2798C91.6856 58.2078 92.0856 59.0238 92.5976 59.7278C93.2696 59.1838 93.8776 58.5598 94.4216 57.8558C94.9656 57.1518 95.4296 56.4158 95.8136 55.6478C96.2296 54.8798 96.5496 54.1118 96.7736 53.3438C96.9976 52.5758 97.1096 51.8558 97.1096 51.1838ZM109.254 54.1598C109.03 54.6398 108.79 55.1358 108.534 55.6478C108.31 56.1278 108.022 56.6078 107.67 57.0878C106.102 59.3278 104.31 61.0238 102.294 62.1758C100.31 63.2958 98.4056 63.8558 96.5816 63.8558C95.5576 63.8558 94.5976 63.6798 93.7016 63.3278C92.8376 62.9758 92.0856 62.4478 91.4456 61.7438C90.8056 61.0398 90.2936 60.1598 89.9096 59.1038C89.5256 58.0478 89.3336 56.7998 89.3336 55.3598C89.3336 54.3998 89.4776 53.4398 89.7656 52.4798C90.0536 51.5198 90.4376 50.6558 90.9176 49.8878C91.4296 49.1198 92.0056 48.4958 92.6456 48.0158C93.3176 47.5358 94.0216 47.2958 94.7576 47.2958C95.9416 47.2958 96.8056 47.6478 97.3496 48.3518C97.8936 49.0238 98.1656 49.8878 98.1656 50.9438C98.1656 52.3838 97.7176 53.9518 96.8216 55.6478C95.9576 57.3118 94.7096 58.8638 93.0776 60.3038C94.2936 61.6798 95.8616 62.3678 97.7816 62.3678C99.2216 62.3678 100.726 61.9358 102.294 61.0718C103.862 60.1758 105.334 58.7998 106.71 56.9438C107.062 56.4958 107.35 56.0158 107.574 55.5038C107.83 54.9598 108.086 54.4318 108.342 53.9198L109.254 54.1598Z" fill="black"/>
<path d="M150.839 42.0638C149.655 42.0638 148.519 42.1918 147.431 42.4478C146.375 42.7038 145.431 43.0078 144.599 43.3598C143.799 43.7118 143.143 44.0798 142.631 44.4638C142.151 44.8478 141.911 45.1838 141.911 45.4718C141.911 45.8558 142.359 46.0478 143.255 46.0478C144.791 46.0478 146.247 45.6798 147.623 44.9438C149.031 44.2078 150.295 43.2478 151.415 42.0638H150.839ZM164.807 49.2638C164.807 50.8318 164.359 52.5278 163.463 54.3518C162.599 56.1758 161.399 57.9838 159.863 59.7758C158.327 61.5678 156.503 63.2958 154.391 64.9598C152.279 66.6238 150.007 68.0958 147.575 69.3758C145.143 70.6558 142.583 71.6638 139.895 72.3998C137.207 73.1678 134.519 73.5518 131.831 73.5518C131.383 73.5518 130.887 73.5358 130.343 73.5038C129.831 73.4718 129.351 73.3918 128.903 73.2638C128.455 73.1678 128.071 72.9918 127.751 72.7358C127.431 72.5118 127.271 72.1918 127.271 71.7758C127.271 71.1998 127.559 70.6398 128.135 70.0958C128.711 69.5838 129.447 69.1038 130.343 68.6558C131.239 68.2078 132.215 67.8078 133.271 67.4558C134.327 67.1038 135.335 66.7998 136.295 66.5438C137.287 66.2878 138.151 66.0798 138.887 65.9198C139.623 65.7918 140.119 65.7278 140.375 65.7278C140.567 65.7278 140.711 65.7758 140.807 65.8718C140.903 65.9678 140.951 66.0638 140.951 66.1598C140.951 66.3198 140.871 66.3998 140.711 66.3998H140.087C139.255 66.3998 138.199 66.5598 136.919 66.8798C135.639 67.1998 134.391 67.5998 133.175 68.0798C131.959 68.5598 130.919 69.0878 130.055 69.6638C129.191 70.2718 128.759 70.8318 128.759 71.3438C128.759 71.6958 128.871 71.9678 129.095 72.1598C129.351 72.3838 129.655 72.5598 130.007 72.6878C130.359 72.8158 130.727 72.8958 131.111 72.9278C131.495 72.9918 131.831 73.0238 132.119 73.0238C134.391 73.0238 136.711 72.6398 139.079 71.8718C141.479 71.1038 143.799 70.0798 146.039 68.7998C148.311 67.5518 150.439 66.0958 152.423 64.4318C154.439 62.7998 156.199 61.1038 157.703 59.3438C159.207 57.5518 160.391 55.7758 161.255 54.0158C162.119 52.2238 162.551 50.5598 162.551 49.0238C162.551 47.1358 161.767 45.5678 160.199 44.3198C158.663 43.0398 156.119 42.3038 152.567 42.1118C151.127 43.4558 149.543 44.5438 147.815 45.3758C146.119 46.2078 144.391 46.6238 142.631 46.6238C141.383 46.6238 140.759 46.3198 140.759 45.7118C140.759 45.3278 141.015 44.8958 141.527 44.4158C142.071 43.9038 142.807 43.4238 143.735 42.9758C144.695 42.5278 145.831 42.1598 147.143 41.8718C148.455 41.5518 149.895 41.3918 151.463 41.3918H152.039C153.095 40.1438 153.943 38.7838 154.583 37.3118C155.223 35.8078 155.543 34.3358 155.543 32.8958C155.543 31.9358 155.367 31.0238 155.015 30.1598C154.695 29.2638 154.151 28.4958 153.383 27.8558C152.647 27.2158 151.671 26.7038 150.455 26.3198C149.271 25.9358 147.831 25.7438 146.135 25.7438C144.983 25.7438 143.383 25.9038 141.335 26.2238C139.319 26.5438 137.127 27.0398 134.759 27.7118C132.423 28.3518 130.039 29.1678 127.607 30.1598C125.175 31.1518 122.967 32.3038 120.983 33.6158C118.999 34.9278 117.383 36.4158 116.135 38.0798C114.887 39.7438 114.263 41.5838 114.263 43.5998C114.263 43.8558 114.215 44.0798 114.119 44.2718C114.023 44.4318 113.927 44.5118 113.831 44.5118C113.703 44.5118 113.607 44.3838 113.543 44.1278C113.447 43.8398 113.399 43.3758 113.399 42.7358C113.687 40.6558 114.535 38.7678 115.943 37.0718C117.351 35.3758 119.095 33.8718 121.175 32.5598C123.223 31.2158 125.479 30.0638 127.943 29.1038C130.407 28.1438 132.839 27.3598 135.239 26.7518C137.671 26.1118 139.927 25.6478 142.007 25.3598C144.119 25.0398 145.847 24.8798 147.191 24.8798C149.143 24.8798 150.791 25.0718 152.135 25.4558C153.511 25.8078 154.631 26.3038 155.495 26.9438C156.359 27.5518 156.983 28.2878 157.367 29.1518C157.751 30.0158 157.943 30.9278 157.943 31.8878C157.943 33.4558 157.511 35.0878 156.647 36.7838C155.815 38.4478 154.679 39.9998 153.239 41.4398C155.287 41.5358 157.047 41.8078 158.519 42.2558C159.991 42.6718 161.191 43.2318 162.119 43.9358C163.047 44.6078 163.719 45.4078 164.135 46.3358C164.583 47.2318 164.807 48.2078 164.807 49.2638ZM139.367 61.8878C139.367 62.3358 139.335 62.6558 139.271 62.8478C139.207 63.0398 139.031 63.1358 138.743 63.1358C138.103 63.1998 137.783 62.5598 137.783 61.2158C137.751 56.7998 137.703 52.7678 137.639 49.1198C137.607 45.4718 137.559 42.3198 137.495 39.6638C137.463 36.9758 137.431 34.8478 137.399 33.2798C137.367 31.7118 137.351 30.8158 137.351 30.5918C137.351 30.3358 137.431 30.1598 137.591 30.0638C137.751 29.9678 137.943 29.8878 138.167 29.8238C138.423 29.8238 138.615 29.9038 138.743 30.0638C138.903 30.2238 138.983 30.4158 138.983 30.6398C138.983 33.1998 138.999 35.8398 139.031 38.5598C139.063 41.2478 139.095 43.9358 139.127 46.6238C139.191 49.3118 139.239 51.9518 139.271 54.5438C139.335 57.1358 139.367 59.5838 139.367 61.8878Z" fill="black"/>
<path d="M183.465 54.2078C183.465 53.7278 183.385 53.3438 183.225 53.0558C183.065 52.7358 182.809 52.5758 182.457 52.5758C181.913 52.5758 181.497 52.8478 181.209 53.3918C180.921 53.9038 180.793 54.5598 180.825 55.3598C180.921 57.0558 181.225 58.4798 181.737 59.6318C182.281 58.8958 182.697 58.0638 182.985 57.1358C183.305 56.2078 183.465 55.2318 183.465 54.2078ZM196.425 54.1598C196.201 54.6398 195.961 55.1358 195.705 55.6478C195.449 56.1278 195.161 56.6078 194.841 57.0878C193.209 59.5198 191.561 61.3278 189.897 62.5118C188.233 63.6958 186.681 64.2878 185.241 64.2878C183.417 64.2878 182.025 63.4238 181.065 61.6958C179.945 62.8158 178.681 63.6638 177.273 64.2398C175.897 64.8158 174.537 65.1038 173.193 65.1038C172.393 65.1038 171.625 64.9918 170.889 64.7678C170.185 64.5438 169.577 64.2078 169.065 63.7598C168.521 63.2798 168.089 62.6878 167.769 61.9838C167.449 61.2478 167.289 60.3998 167.289 59.4398C167.289 58.2878 167.561 57.1198 168.105 55.9358C168.617 54.7198 169.337 53.6318 170.265 52.6718C171.225 51.6798 172.345 50.8638 173.625 50.2238C174.905 49.5838 176.297 49.2638 177.801 49.2638C179.017 49.2638 179.961 49.4398 180.633 49.7918C181.305 50.1118 181.641 50.4158 181.641 50.7038C181.641 50.8318 181.577 50.9278 181.449 50.9918C181.321 51.0558 181.209 51.0878 181.113 51.0878C181.081 51.0558 181.049 51.0398 181.017 51.0398H180.969C180.585 50.6878 180.153 50.4158 179.673 50.2238C179.193 49.9998 178.489 49.8878 177.561 49.8878C176.313 49.8878 175.177 50.1598 174.153 50.7038C173.161 51.2158 172.313 51.9038 171.609 52.7678C170.905 53.5998 170.361 54.5278 169.977 55.5518C169.593 56.5758 169.401 57.5838 169.401 58.5758C169.401 60.4958 169.849 61.8878 170.745 62.7518C171.641 63.6158 172.761 64.0478 174.105 64.0478C175.193 64.0478 176.329 63.7758 177.513 63.2318C178.697 62.6878 179.753 61.9198 180.681 60.9278C180.169 59.7758 179.913 58.2718 179.913 56.4158C179.913 55.1998 180.137 54.1438 180.585 53.2478C181.033 52.3518 181.673 51.9038 182.505 51.9038C183.657 51.9038 184.233 52.5758 184.233 53.9198C184.233 55.2638 184.041 56.4798 183.657 57.5678C183.273 58.6238 182.761 59.5838 182.121 60.4478C183.017 62.1118 184.265 62.9438 185.865 62.9438C187.081 62.9438 188.377 62.4318 189.753 61.4078C191.161 60.3838 192.537 58.8958 193.881 56.9438C194.201 56.4638 194.489 55.9678 194.745 55.4558C195.001 54.9438 195.257 54.4318 195.513 53.9198L196.425 54.1598Z" fill="black"/>
<path d="M203.092 32.7038C203.092 30.8798 202.788 29.4238 202.18 28.3358C201.604 27.2158 200.628 26.6558 199.252 26.6558C198.772 26.6558 198.324 26.8158 197.908 27.1358C197.524 27.4238 197.188 27.8238 196.9 28.3358C196.612 28.8478 196.388 29.4398 196.228 30.1118C196.068 30.7838 195.988 31.5038 195.988 32.2718C195.988 34.3838 196.004 36.3038 196.036 38.0318C196.068 39.7598 196.1 41.3918 196.132 42.9278C196.196 44.4638 196.26 45.9518 196.324 47.3918C196.388 48.8318 196.452 50.3038 196.516 51.8078C197.444 50.5598 198.308 49.1358 199.108 47.5358C199.908 45.9038 200.596 44.2398 201.172 42.5438C201.78 40.8158 202.244 39.1038 202.564 37.4078C202.916 35.7118 203.092 34.1438 203.092 32.7038ZM220.468 54.1598C220.244 54.6398 220.004 55.1358 219.748 55.6478C219.524 56.1598 219.236 56.6398 218.884 57.0878C217.124 59.5838 215.124 61.5518 212.884 62.9918C210.644 64.3998 208.42 65.1038 206.212 65.1038C204.836 65.1038 203.524 64.7838 202.276 64.1438C201.028 63.5358 199.924 62.5438 198.964 61.1678C198.836 61.0078 198.772 60.8638 198.772 60.7358C198.772 60.4478 198.964 60.3038 199.348 60.3038C199.38 60.3038 199.492 60.3358 199.684 60.3998C199.94 60.3998 200.228 60.4958 200.548 60.6878C200.9 60.8478 201.396 60.9278 202.036 60.9278C203.028 60.9278 203.956 60.7518 204.82 60.3998C205.684 60.0478 206.42 59.5998 207.028 59.0558C207.668 58.4798 208.164 57.8398 208.516 57.1358C208.868 56.3998 209.044 55.6478 209.044 54.8798C209.044 53.9198 208.788 53.0878 208.276 52.3838C207.796 51.6798 206.964 51.3278 205.78 51.3278C204.564 51.3278 203.444 51.7598 202.42 52.6238C201.396 53.4558 200.468 54.4798 199.636 55.6958C198.836 56.8798 198.148 58.1438 197.572 59.4878C196.996 60.7998 196.564 61.9518 196.276 62.9438C196.116 63.4878 195.972 63.8238 195.844 63.9518C195.716 64.0798 195.572 64.1438 195.412 64.1438C195.06 64.1438 194.9 63.8078 194.932 63.1358C194.932 62.8478 194.948 62.4958 194.98 62.0798C195.012 61.6638 195.044 61.2158 195.076 60.7358C195.076 60.2558 195.092 59.7758 195.124 59.2958C195.156 58.7838 195.172 58.3198 195.172 57.9038C195.172 56.4638 195.14 54.8158 195.076 52.9598C195.012 51.0718 194.932 49.1358 194.836 47.1518C194.74 45.1358 194.66 43.1358 194.596 41.1518C194.532 39.1678 194.5 37.3438 194.5 35.6798C194.5 34.3678 194.596 33.1038 194.788 31.8878C194.98 30.6398 195.284 29.5518 195.7 28.6238C196.116 27.6638 196.644 26.9118 197.284 26.3678C197.924 25.7918 198.676 25.5038 199.54 25.5038C200.436 25.5038 201.188 25.6638 201.796 25.9838C202.436 26.2718 202.948 26.7038 203.332 27.2798C203.716 27.8238 203.988 28.4958 204.148 29.2958C204.34 30.0638 204.436 30.9118 204.436 31.8398C204.436 33.4398 204.212 35.1998 203.764 37.1198C203.316 39.0078 202.724 40.9118 201.988 42.8318C201.252 44.7518 200.404 46.6078 199.444 48.3998C198.516 50.1598 197.556 51.6958 196.564 53.0078C196.628 53.9678 196.66 54.9598 196.66 55.9838C196.692 57.0078 196.74 58.0958 196.804 59.2478C197.604 57.5198 198.484 56.0318 199.444 54.7838C199.86 54.2398 200.324 53.7118 200.836 53.1998C201.38 52.6558 201.94 52.1758 202.516 51.7598C203.124 51.3438 203.764 51.0078 204.436 50.7518C205.14 50.4958 205.876 50.3678 206.644 50.3678C207.86 50.3678 208.916 50.6718 209.812 51.2798C210.708 51.8878 211.156 52.8638 211.156 54.2078C211.156 55.4878 210.836 56.5758 210.196 57.4718C209.588 58.3678 208.82 59.1198 207.892 59.7278C206.964 60.3038 205.972 60.7358 204.916 61.0238C203.86 61.3118 202.9 61.4878 202.036 61.5518C201.972 61.5518 201.94 61.5678 201.94 61.5998C201.94 61.6638 201.988 61.7598 202.084 61.8878C202.724 62.6238 203.444 63.1518 204.244 63.4718C205.044 63.7918 205.876 63.9518 206.74 63.9518C207.796 63.9518 208.868 63.7598 209.956 63.3758C211.044 62.9598 212.084 62.4318 213.076 61.7918C214.068 61.1198 214.98 60.3678 215.812 59.5358C216.676 58.6718 217.38 57.8078 217.924 56.9438C218.244 56.4638 218.532 55.9678 218.788 55.4558C219.044 54.9438 219.3 54.4318 219.556 53.9198L220.468 54.1598Z" fill="black"/>
<path d="M227.235 51.1838C227.235 50.3198 227.011 49.6158 226.563 49.0718C226.147 48.4958 225.459 48.2078 224.499 48.2078C223.987 48.2078 223.523 48.3678 223.107 48.6878C222.691 49.0078 222.339 49.4398 222.051 49.9838C221.763 50.4958 221.539 51.1038 221.379 51.8078C221.219 52.5118 221.139 53.2478 221.139 54.0158C221.139 55.2318 221.267 56.3198 221.523 57.2798C221.811 58.2078 222.211 59.0238 222.723 59.7278C223.395 59.1838 224.003 58.5598 224.547 57.8558C225.091 57.1518 225.555 56.4158 225.939 55.6478C226.355 54.8798 226.675 54.1118 226.899 53.3438C227.123 52.5758 227.235 51.8558 227.235 51.1838ZM239.379 54.1598C239.155 54.6398 238.915 55.1358 238.659 55.6478C238.435 56.1278 238.147 56.6078 237.795 57.0878C236.227 59.3278 234.435 61.0238 232.419 62.1758C230.435 63.2958 228.531 63.8558 226.707 63.8558C225.683 63.8558 224.723 63.6798 223.827 63.3278C222.963 62.9758 222.211 62.4478 221.571 61.7438C220.931 61.0398 220.419 60.1598 220.035 59.1038C219.651 58.0478 219.459 56.7998 219.459 55.3598C219.459 54.3998 219.603 53.4398 219.891 52.4798C220.179 51.5198 220.563 50.6558 221.043 49.8878C221.555 49.1198 222.131 48.4958 222.771 48.0158C223.443 47.5358 224.147 47.2958 224.883 47.2958C226.067 47.2958 226.931 47.6478 227.475 48.3518C228.019 49.0238 228.291 49.8878 228.291 50.9438C228.291 52.3838 227.843 53.9518 226.947 55.6478C226.083 57.3118 224.835 58.8638 223.203 60.3038C224.419 61.6798 225.987 62.3678 227.907 62.3678C229.347 62.3678 230.851 61.9358 232.419 61.0718C233.987 60.1758 235.459 58.7998 236.835 56.9438C237.187 56.4958 237.475 56.0158 237.699 55.5038C237.955 54.9598 238.211 54.4318 238.467 53.9198L239.379 54.1598Z" fill="black"/>
</svg>
