<svg width="36" height="36" viewBox="0 0 36 36" fill="none" xmlns="http://www.w3.org/2000/svg">
<path fill-rule="evenodd" clip-rule="evenodd" d="M35.1075 25.2974C34.2915 23.6541 33.2163 22.1529 31.923 20.8514C31.4905 20.3626 31.0376 19.8922 30.5655 19.4414L30.5085 19.3859C30.3332 19.2157 30.1602 19.0432 29.9895 18.8684C31.7574 16.4101 33.2702 13.778 34.5045 11.0129L34.554 10.9019L34.5885 10.7849C34.752 10.2404 34.938 9.20545 34.278 8.26945C33.594 7.30345 32.5005 7.12945 31.767 7.12945H28.3965C27.6908 7.09729 26.9929 7.2892 26.4029 7.67771C25.8128 8.06623 25.3608 8.63143 25.1115 9.29245C24.3861 11.0199 23.478 12.6648 22.4025 14.1989V10.2494C22.4025 9.73945 22.3545 8.88445 21.807 8.16445C21.153 7.30045 20.2065 7.12945 19.5495 7.12945H14.2005C13.5025 7.11339 12.8251 7.36639 12.3085 7.83606C11.7919 8.30573 11.4758 8.95609 11.4255 9.65245L11.421 9.71995V9.78745C11.421 10.5149 11.709 11.0519 11.94 11.3894C12.0435 11.5409 12.153 11.6789 12.2235 11.7659L12.2385 11.7854C12.3135 11.8784 12.363 11.9399 12.4125 12.0089C12.5445 12.1859 12.732 12.4619 12.786 13.1729V15.3824C11.7123 13.5844 10.8319 11.6778 10.1595 9.69445L10.1475 9.66145L10.1355 9.62995C9.9525 9.15145 9.66 8.45545 9.0735 7.92445C8.3895 7.30195 7.5795 7.12945 6.843 7.12945H3.423C2.6775 7.12945 1.779 7.30345 1.1085 8.00995C0.45 8.70595 0.375 9.53995 0.375 9.98095V10.1819L0.417 10.3769C1.36395 14.7731 3.31535 18.8905 6.1185 22.4069C7.40006 24.4279 9.13993 26.1184 11.197 27.3412C13.254 28.564 15.5703 29.2847 17.958 29.4449L18.0195 29.4494H18.0825C19.1715 29.4494 20.307 29.3549 21.1605 28.7864C22.311 28.0184 22.4025 26.841 22.4025 26.2529V24.5459C22.698 24.7859 23.064 25.1069 23.5125 25.5389C24.0555 26.0819 24.4875 26.5529 24.858 26.9639L25.056 27.1829C25.344 27.5039 25.6275 27.8204 25.8855 28.0799C26.2095 28.4054 26.61 28.7639 27.111 29.0294C27.6555 29.3159 28.227 29.4464 28.833 29.4464H32.2545C32.976 29.4464 34.0095 29.2754 34.737 28.4324C35.529 27.5144 35.469 26.3879 35.22 25.5794L35.175 25.4339L35.1075 25.2974ZM26.5275 25.4564C26.0626 24.9368 25.5839 24.4296 25.092 23.9354L25.0875 23.9309C23.052 21.9689 22.1025 21.6284 21.4305 21.6284C21.072 21.6284 20.6775 21.6674 20.421 21.9884C20.3055 22.1416 20.2298 22.3209 20.2005 22.5104C20.1643 22.7305 20.1483 22.9535 20.1525 23.1764V26.2529C20.1525 26.6354 20.0895 26.7959 19.9125 26.9129C19.677 27.0704 19.1745 27.1979 18.096 27.1979C16.0473 27.0585 14.061 26.4349 12.3003 25.3783C10.5396 24.3216 9.05478 22.8622 7.968 21.1199L7.956 21.1004L7.941 21.0824C5.32967 17.8322 3.50977 14.0193 2.625 9.94495C2.631 9.74995 2.673 9.63145 2.742 9.55945C2.8125 9.48445 2.985 9.37945 3.423 9.37945H6.843C7.2225 9.37945 7.4205 9.46345 7.563 9.59095C7.722 9.73795 7.863 9.98545 8.031 10.4264C8.871 12.8954 10.005 15.2054 11.0805 16.9019C11.6175 17.7509 12.1455 18.4574 12.6225 18.9569C12.861 19.2059 13.0935 19.4129 13.317 19.5599C13.5315 19.7009 13.776 19.8134 14.028 19.8134C14.16 19.8134 14.3145 19.7984 14.463 19.7339C14.6234 19.6631 14.7554 19.5406 14.838 19.3859C14.9925 19.1039 15.036 18.6884 15.036 18.1439V13.0844C14.9565 11.8574 14.586 11.1659 14.226 10.6754C14.1531 10.5773 14.0781 10.4808 14.001 10.3859L13.9815 10.3619C13.9175 10.2843 13.8565 10.2042 13.7985 10.1219C13.7247 10.0302 13.6802 9.91834 13.671 9.80095C13.6828 9.68175 13.7396 9.57156 13.83 9.49293C13.9203 9.41429 14.0373 9.37316 14.157 9.37795H19.5495C19.8585 9.37795 19.962 9.45295 20.0145 9.52345C20.0895 9.62095 20.1525 9.82345 20.1525 10.2494V17.0414C20.1525 17.8484 20.5245 18.3944 21.0645 18.3944C21.6855 18.3944 22.134 18.0179 22.917 17.2349L22.9305 17.2199L22.9425 17.2064C24.699 15.0649 26.134 12.6788 27.2025 10.1234L27.2085 10.1054C27.2888 9.87968 27.4407 9.68637 27.6411 9.55502C27.8416 9.42366 28.0794 9.36148 28.3185 9.37795H31.7685C32.2365 9.37795 32.3895 9.49795 32.4405 9.56845C32.493 9.64345 32.5305 9.80395 32.4405 10.1189C31.2084 12.8735 29.6852 15.4883 27.897 17.9189L27.885 17.9369C27.7125 18.2024 27.522 18.4964 27.495 18.8324C27.465 19.1954 27.621 19.5239 27.8955 19.8779C28.095 20.1719 28.5075 20.5754 28.926 20.9849L28.965 21.0239C29.403 21.4529 29.8785 21.9179 30.2595 22.3679L30.27 22.3784L30.2805 22.3904C31.4166 23.5237 32.3614 24.8337 33.078 26.2694C33.192 26.6594 33.123 26.8604 33.033 26.9639C32.9295 27.0839 32.697 27.1964 32.256 27.1964H28.833C28.5997 27.2021 28.3689 27.1479 28.1625 27.0389C27.9096 26.8918 27.6801 26.7078 27.4815 26.4929C27.267 26.2784 27.0345 26.0189 26.7495 25.7024L26.529 25.4564H26.5275Z" fill="#FFF9F4"/>
</svg>
