<svg width="36" height="36" viewBox="0 0 36 36" fill="none" xmlns="http://www.w3.org/2000/svg">
<path d="M33.75 17.902C33.75 17.8246 33.75 17.7367 33.7465 17.6348C33.743 17.35 33.7359 17.0301 33.7289 16.6891C33.7008 15.7082 33.6516 14.7309 33.5742 13.8098C33.4688 12.5406 33.3141 11.4824 33.1031 10.6879C32.8805 9.85873 32.4442 9.10251 31.8377 8.49483C31.2313 7.88715 30.476 7.44928 29.6473 7.225C28.6523 6.95781 26.7047 6.79258 23.9625 6.69062C22.6582 6.64141 21.2625 6.60977 19.8668 6.59219C19.3781 6.58516 18.9246 6.58164 18.5168 6.57812H17.4832C17.0754 6.58164 16.6219 6.58516 16.1332 6.59219C14.7375 6.60977 13.3418 6.64141 12.0375 6.69062C9.29531 6.79609 7.34414 6.96133 6.35273 7.225C5.52375 7.44873 4.76813 7.88641 4.1616 8.49418C3.55507 9.10195 3.11892 9.85846 2.89688 10.6879C2.68242 11.4824 2.53125 12.5406 2.42578 13.8098C2.34844 14.7309 2.29922 15.7082 2.27109 16.6891C2.26055 17.0301 2.25703 17.35 2.25352 17.6348C2.25352 17.7367 2.25 17.8246 2.25 17.902V18.0988C2.25 18.1762 2.25 18.2641 2.25352 18.366C2.25703 18.6508 2.26406 18.9707 2.27109 19.3117C2.29922 20.2926 2.34844 21.2699 2.42578 22.191C2.53125 23.4602 2.68594 24.5184 2.89688 25.3129C3.34688 26.9969 4.66875 28.3258 6.35273 28.7758C7.34414 29.043 9.29531 29.2082 12.0375 29.3102C13.3418 29.3594 14.7375 29.391 16.1332 29.4086C16.6219 29.4156 17.0754 29.4191 17.4832 29.4227H18.5168C18.9246 29.4191 19.3781 29.4156 19.8668 29.4086C21.2625 29.391 22.6582 29.3594 23.9625 29.3102C26.7047 29.2047 28.6559 29.0395 29.6473 28.7758C31.3312 28.3258 32.6531 27.0004 33.1031 25.3129C33.3176 24.5184 33.4688 23.4602 33.5742 22.191C33.6516 21.2699 33.7008 20.2926 33.7289 19.3117C33.7395 18.9707 33.743 18.6508 33.7465 18.366C33.7465 18.2641 33.75 18.1762 33.75 18.0988V17.902ZM31.2188 18.0848C31.2188 18.1586 31.2188 18.2395 31.2152 18.3344C31.2117 18.6086 31.2047 18.9109 31.1977 19.2379C31.173 20.173 31.1238 21.1082 31.05 21.9766C30.9551 23.1086 30.8215 24.0367 30.6562 24.659C30.4383 25.4711 29.7984 26.1145 28.9898 26.3289C28.2516 26.5258 26.3918 26.684 23.8641 26.7789C22.5844 26.8281 21.2062 26.8598 19.8316 26.8773C19.35 26.8844 18.9035 26.8879 18.5027 26.8879H17.4973L16.1684 26.8773C14.7937 26.8598 13.4191 26.8281 12.1359 26.7789C9.6082 26.6805 7.74492 26.5258 7.01016 26.3289C6.20156 26.1109 5.56172 25.4711 5.34375 24.659C5.17852 24.0367 5.04492 23.1086 4.95 21.9766C4.87617 21.1082 4.83047 20.173 4.80234 19.2379C4.7918 18.9109 4.78828 18.6051 4.78477 18.3344C4.78477 18.2395 4.78125 18.1551 4.78125 18.0848V17.916C4.78125 17.8422 4.78125 17.7613 4.78477 17.6664C4.78828 17.3922 4.79531 17.0898 4.80234 16.7629C4.82695 15.8277 4.87617 14.8926 4.95 14.0242C5.04492 12.8922 5.17852 11.9641 5.34375 11.3418C5.56172 10.5297 6.20156 9.88633 7.01016 9.67188C7.74844 9.475 9.6082 9.3168 12.1359 9.22187C13.4156 9.17266 14.7937 9.14102 16.1684 9.12344C16.65 9.11641 17.0965 9.11289 17.4973 9.11289H18.5027L19.8316 9.12344C21.2062 9.14102 22.5809 9.17266 23.8641 9.22187C26.3918 9.32031 28.2551 9.475 28.9898 9.67188C29.7984 9.88984 30.4383 10.5297 30.6562 11.3418C30.8215 11.9641 30.9551 12.8922 31.05 14.0242C31.1238 14.8926 31.1695 15.8277 31.1977 16.7629C31.2082 17.0898 31.2117 17.3957 31.2152 17.6664C31.2152 17.7613 31.2188 17.8457 31.2188 17.916V18.0848ZM14.8711 22.7113L23.0273 17.9652L14.8711 13.2895V22.7113Z" fill="#FFF9F4"/>
</svg>
