<svg width="28" height="27" viewBox="0 0 28 27" fill="none" xmlns="http://www.w3.org/2000/svg">
<path d="M22.7855 6.29C22.7855 7.19 22.0524 7.91 21.1585 7.91C20.2646 7.91 19.5314 7.18 19.5314 6.29C19.5314 5.39 20.2646 4.67 21.1585 4.67C22.0524 4.67 22.7855 5.4 22.7855 6.29ZM13.917 18C16.4179 18.04 18.4668 16.05 18.5069 13.57C18.5471 11.09 16.5484 9.04 14.0476 9C14.0074 9 13.9572 9 13.917 9C11.4161 9 9.39733 11.01 9.39733 13.5C9.39733 15.99 11.4161 18 13.917 18ZM13.917 6.57C17.7637 6.52 20.9174 9.59 20.9676 13.42C21.0179 17.25 17.9345 20.39 14.0877 20.44C14.0275 20.44 13.9772 20.44 13.917 20.44C10.0703 20.39 6.98685 17.25 7.03707 13.42C7.08729 9.65 10.1406 6.61 13.917 6.57ZM13.917 2.43C10.3013 2.43 9.86939 2.44 8.44319 2.51C7.11742 2.57 6.39428 2.79 5.92222 2.97C5.32965 3.19 4.79733 3.54 4.36546 3.98C3.91349 4.42 3.56196 4.95 3.35105 5.54C3.17026 6.02 2.9493 6.73 2.88904 8.05C2.81873 9.47 2.79864 9.89 2.79864 13.5C2.79864 17.1 2.80869 17.53 2.87899 18.95C2.93925 20.27 3.16022 20.98 3.341 21.46C3.59209 22.09 3.88336 22.54 4.35541 23.01C4.82747 23.48 5.27943 23.77 5.91218 24.02C6.39428 24.2 7.10738 24.42 8.43314 24.49C9.85934 24.56 10.2912 24.57 13.9069 24.57C17.5227 24.57 17.9545 24.56 19.3908 24.49C20.7165 24.43 21.4296 24.21 21.9117 24.02C22.5043 23.8 23.0366 23.46 23.4685 23.01C23.9205 22.57 24.262 22.04 24.4829 21.46C24.6637 20.98 24.8947 20.27 24.955 18.95C25.0253 17.53 25.0353 17.1 25.0353 13.5C25.0353 9.9 25.0253 9.47 24.955 8.04C24.8947 6.72 24.6738 6.01 24.4829 5.53C24.262 4.94 23.9205 4.41 23.4685 3.98C23.0266 3.53 22.4943 3.19 21.9117 2.97C21.4296 2.79 20.7165 2.57 19.3908 2.51C17.9646 2.45 17.5427 2.43 13.917 2.43ZM13.917 0C17.603 0 18.065 0.01 19.5113 0.08C20.9576 0.15 21.9419 0.37 22.8056 0.71C23.7096 1.05 24.5331 1.58 25.2061 2.27C25.8991 2.94 26.4314 3.76 26.7729 4.66C27.1043 5.52 27.3353 6.5 27.4056 7.94C27.4659 9.37 27.4759 9.83 27.4759 13.5C27.4759 17.17 27.4659 17.63 27.3956 19.07C27.3253 20.51 27.0943 21.49 26.7628 22.35C26.4214 23.25 25.889 24.07 25.196 24.74C24.5231 25.43 23.6995 25.96 22.7956 26.3C21.9318 26.63 20.9476 26.86 19.5013 26.93C18.065 26.98 17.603 27 13.917 27C10.231 27 9.76895 26.98 8.32266 26.92C6.87637 26.85 5.89209 26.63 5.02834 26.29C4.12441 25.95 3.30083 25.42 2.6279 24.73C1.93489 24.06 1.40257 23.24 1.06109 22.34C0.729648 21.48 0.498644 20.5 0.428338 19.06C0.37812 17.63 0.358032 17.17 0.358032 13.5C0.358032 9.83 0.37812 9.37 0.438382 7.93C0.508687 6.5 0.739692 5.51 1.07113 4.66C1.41262 3.76 1.94493 2.94 2.63794 2.27C3.31087 1.58 4.13445 1.05 5.03838 0.71C5.90214 0.37 6.88642 0.15 8.32266 0.08C9.76895 0.01 10.241 0 13.917 0Z" fill="#F05A26"/>
</svg>
