<svg width="16.760315" height="29.044922" viewBox="0 0 16.7603 29.0449" fill="none" xmlns="http://www.w3.org/2000/svg" xmlns:xlink="http://www.w3.org/1999/xlink">
	<desc>
			Created with Pixso.
	</desc>
	<defs/>
	<path id="Vector" d="M8.35 14.99C12.48 14.99 15.84 11.62 15.84 7.5C15.84 3.35 12.48 0 8.35 0C4.21 0 0.86 3.35 0.85 7.49C0.86 11.62 4.21 14.98 8.35 14.99ZM8.35 4.39C10.06 4.39 11.45 5.77 11.45 7.49C11.45 9.2 10.06 10.58 8.35 10.58C6.64 10.58 5.25 9.2 5.25 7.49C5.25 5.77 6.64 4.39 8.35 4.39ZM11.38 21.1C12.92 20.75 14.39 20.14 15.73 19.29C16.76 18.64 17.06 17.29 16.42 16.27C15.78 15.24 14.42 14.93 13.4 15.58C10.31 17.5 6.4 17.5 3.31 15.58C2.26 14.96 0.92 15.31 0.3 16.35C-0.29 17.35 0 18.66 0.97 19.29C2.31 20.14 3.78 20.75 5.32 21.1L1.13 25.29C0.27 26.14 0.27 27.52 1.12 28.39C1.53 28.79 2.09 29.04 2.68 29.04C3.24 29.04 3.8 28.81 4.23 28.39L8.35 24.27L12.47 28.39C13.33 29.25 14.71 29.25 15.57 28.39C16.43 27.54 16.43 26.16 15.57 25.29L11.38 21.1Z" fill="#FFFFFF" fill-opacity="1.000000" fill-rule="evenodd"/>
</svg>
