<svg width="17" height="17" viewBox="0 0 17 17" fill="none" xmlns="http://www.w3.org/2000/svg">
<g clip-path="url(#clip0_6_128)">
<path d="M4.76665 6.9C3.91796 6.9 3.10403 6.56286 2.50391 5.96274C1.90379 5.36263 1.56665 4.54869 1.56665 3.7C1.56665 2.85131 1.90379 2.03737 2.50391 1.43726C3.10403 0.837142 3.91796 0.5 4.76665 0.5L12.2333 0.5C13.082 0.5 13.8959 0.837142 14.4961 1.43726C15.0962 2.03737 15.4333 2.85131 15.4333 3.7C15.4333 4.54869 15.0962 5.36263 14.4961 5.96274C13.8959 6.56286 13.082 6.9 12.2333 6.9H10.1V4.23333C10.1 3.52609 9.81903 2.84781 9.31894 2.34772C8.81884 1.84762 8.14056 1.56667 7.43332 1.56667C6.72607 1.56667 6.0478 1.84762 5.5477 2.34772C5.0476 2.84781 4.76665 3.52609 4.76665 4.23333V6.9Z" fill="white"/>
<path d="M7.43328 2.63333C7.00894 2.63333 6.60197 2.8019 6.30191 3.10196C6.00186 3.40202 5.83328 3.80899 5.83328 4.23333V9.08667C5.23096 9.20962 4.68961 9.5369 4.30085 10.0131C3.9121 10.4893 3.69983 11.0853 3.69995 11.7C3.69995 12.973 4.20566 14.1939 5.10584 15.0941C6.00601 15.9943 7.22691 16.5 8.49995 16.5H9.03328C10.4478 16.5 11.8043 15.9381 12.8045 14.9379C13.8047 13.9377 14.3666 12.5812 14.3666 11.1667V10.2568C14.3666 9.64942 14.1253 9.06692 13.6959 8.63743C13.2664 8.20795 12.6839 7.96667 12.0765 7.96667H9.03328V4.23333C9.03328 3.80899 8.86471 3.40202 8.56466 3.10196C8.2646 2.8019 7.85763 2.63333 7.43328 2.63333Z" fill="white"/>
</g>
<defs>
<clipPath id="clip0_6_128">
<rect width="16" height="16" fill="white" transform="translate(0.5 0.5)"/>
</clipPath>
</defs>
</svg>
